<svg width="70" height="30" viewBox="0 0 70 30" fill="none" xmlns="http://www.w3.org/2000/svg">
<path d="M10.2564 9.87773L0 2.60282V22.0423L10.2564 29.3172V9.87773Z" fill="white"/>
<path d="M0 2.60282L10.2564 9.87773L11.7671 9.40122L2.26595 2.85442C2.26595 2.85442 1.90817 2.32454 3.53807 1.91394C4.77043 1.60348 5.24747 1.91394 5.24747 1.91394L14.6691 8.48582L16.1797 8.00931L5.92329 0.734403C5.92329 0.734403 4.33314 0.450159 2.80263 0.873541C0.874579 1.40689 0 2.60282 0 2.60282Z" fill="white"/>
<path d="M10.2564 9.87773V29.3172L11.7671 28.6177V9.40122L10.2564 9.87773Z" fill="white"/>
<path d="M16.1797 26.5742V8.00931L14.6691 8.48582V27.2738L16.1797 26.5742Z" fill="white"/>
<path d="M28.6328 7.73334C29.3002 7.87556 29.8362 8.20924 30.241 8.73436C30.6458 9.24855 30.8482 9.83932 30.8482 10.5067C30.8482 11.4694 30.5091 12.2352 29.8308 12.8041C29.1634 13.3621 28.228 13.641 27.0246 13.641H21.6585V2.12103H26.8441C28.0147 2.12103 28.9282 2.38906 29.5846 2.92513C30.252 3.4612 30.5856 4.18872 30.5856 5.1077C30.5856 5.78599 30.4051 6.34941 30.0441 6.79795C29.694 7.2465 29.2236 7.5583 28.6328 7.73334ZM24.4646 6.78154H26.3026C26.762 6.78154 27.1121 6.68308 27.3528 6.48616C27.6044 6.2783 27.7303 5.97744 27.7303 5.58359C27.7303 5.18975 27.6044 4.88889 27.3528 4.68103C27.1121 4.47317 26.762 4.36924 26.3026 4.36924H24.4646V6.78154ZM26.5323 11.3764C27.0027 11.3764 27.3638 11.2725 27.6154 11.0646C27.8779 10.8458 28.0092 10.534 28.0092 10.1292C28.0092 9.72445 27.8725 9.40718 27.599 9.17744C27.3364 8.9477 26.9699 8.83282 26.4995 8.83282H24.4646V11.3764H26.5323ZM37.924 13.7559C36.8409 13.7559 35.8453 13.5043 34.9373 13.001C34.0402 12.4978 33.3236 11.7976 32.7876 10.9005C32.2624 9.99248 31.9999 8.97505 31.9999 7.84821C31.9999 6.72137 32.2624 5.70941 32.7876 4.81231C33.3236 3.91522 34.0402 3.21505 34.9373 2.7118C35.8453 2.20855 36.8409 1.95693 37.924 1.95693C39.007 1.95693 39.9971 2.20855 40.8942 2.7118C41.8023 3.21505 42.5134 3.91522 43.0276 4.81231C43.5527 5.70941 43.8152 6.72137 43.8152 7.84821C43.8152 8.97505 43.5527 9.99248 43.0276 10.9005C42.5024 11.7976 41.7913 12.4978 40.8942 13.001C39.9971 13.5043 39.007 13.7559 37.924 13.7559ZM37.924 11.1959C38.8429 11.1959 39.5759 10.8896 40.1229 10.2769C40.6809 9.66428 40.9599 8.85471 40.9599 7.84821C40.9599 6.83077 40.6809 6.0212 40.1229 5.41949C39.5759 4.80684 38.8429 4.50052 37.924 4.50052C36.9941 4.50052 36.2501 4.80137 35.6922 5.40308C35.1452 6.00479 34.8717 6.81983 34.8717 7.84821C34.8717 8.86565 35.1452 9.68069 35.6922 10.2933C36.2501 10.895 36.9941 11.1959 37.924 11.1959ZM50.8246 13.7559C49.7415 13.7559 48.746 13.5043 47.8379 13.001C46.9408 12.4978 46.2243 11.7976 45.6882 10.9005C45.1631 9.99248 44.9005 8.97505 44.9005 7.84821C44.9005 6.72137 45.1631 5.70941 45.6882 4.81231C46.2243 3.91522 46.9408 3.21505 47.8379 2.7118C48.746 2.20855 49.7415 1.95693 50.8246 1.95693C51.9077 1.95693 52.8978 2.20855 53.7949 2.7118C54.7029 3.21505 55.414 3.91522 55.9282 4.81231C56.4533 5.70941 56.7159 6.72137 56.7159 7.84821C56.7159 8.97505 56.4533 9.99248 55.9282 10.9005C55.4031 11.7976 54.692 12.4978 53.7949 13.001C52.8978 13.5043 51.9077 13.7559 50.8246 13.7559ZM50.8246 11.1959C51.7436 11.1959 52.4766 10.8896 53.0236 10.2769C53.5815 9.66428 53.8605 8.85471 53.8605 7.84821C53.8605 6.83077 53.5815 6.0212 53.0236 5.41949C52.4766 4.80684 51.7436 4.50052 50.8246 4.50052C49.8947 4.50052 49.1508 4.80137 48.5928 5.40308C48.0458 6.00479 47.7723 6.81983 47.7723 7.84821C47.7723 8.86565 48.0458 9.68069 48.5928 10.2933C49.1508 10.895 49.8947 11.1959 50.8246 11.1959ZM64.956 13.641L61.0832 8.55385V13.641H58.277V2.12103H61.0832V7.17539L64.9232 2.12103H68.2217L63.7581 7.76616L68.3858 13.641H64.956ZM34.7046 16.121V27.641H31.8985V20.7323L29.322 27.641H27.0574L24.4646 20.7159V27.641H21.6585V16.121H24.9733L28.2061 24.0964L31.4061 16.121H34.7046ZM43.8938 25.6062H39.5944L38.9051 27.641H35.9677L40.1359 16.121H43.3851L47.5533 27.641H44.5831L43.8938 25.6062ZM43.1718 23.44L41.7441 19.2226L40.3328 23.44H43.1718ZM54.6968 27.641L52.3009 23.2923H51.6281V27.641H48.8219V16.121H53.5317C54.4397 16.121 55.211 16.2797 55.8455 16.5969C56.491 16.9142 56.9723 17.3518 57.2896 17.9097C57.6069 18.4568 57.7655 19.0694 57.7655 19.7477C57.7655 20.5135 57.5467 21.1973 57.1091 21.799C56.6824 22.4007 56.0479 22.8274 55.2055 23.079L57.864 27.641H54.6968ZM51.6281 21.3067H53.3676C53.8817 21.3067 54.2646 21.1809 54.5163 20.9292C54.7788 20.6776 54.9101 20.3221 54.9101 19.8626C54.9101 19.425 54.7788 19.0803 54.5163 18.8287C54.2646 18.5771 53.8817 18.4513 53.3676 18.4513H51.6281V21.3067ZM66.206 27.641L62.3332 22.5539V27.641H59.527V16.121H62.3332V21.1754L66.1732 16.121H69.4717L65.0081 21.7662L69.6358 27.641H66.206Z" fill="white"/>
</svg>
