<svg width="110" height="140" viewBox="0 0 110 140" fill="none" xmlns="http://www.w3.org/2000/svg">
<path d="M94.5724 135.232C94.5533 135.463 94.543 135.582 94.543 135.582C94.515 135.886 94.462 136.185 94.3765 136.472C94.2926 136.758 94.1806 137.036 94.0436 137.3C93.9051 137.562 93.7431 137.812 93.5619 138.05C93.3793 138.285 93.1715 138.502 92.955 138.705C92.7326 138.904 92.491 139.084 92.2347 139.241C91.9813 139.4 91.7147 139.539 91.4333 139.652C91.1534 139.763 90.8632 139.85 90.5627 139.909C90.2651 139.969 89.9514 139.999 89.6465 140C89.6465 140 89.3121 139.997 88.686 139.997C88.3693 139.997 87.9878 139.997 87.534 140C87.3043 139.997 87.0641 139.997 86.8034 139.996C86.5412 140 86.2657 139.997 85.9741 139.997C85.6809 140 85.3745 140 85.0519 139.999C84.7293 140 84.392 140 84.0384 139.997C83.6863 139.997 83.3225 140 82.941 140C82.5609 139.999 82.1676 139.997 81.7596 139.997C81.5577 139.999 81.3515 139.997 81.1394 139.999C80.9317 139.999 80.7181 139.997 80.503 140L79.8446 139.996C79.6236 139.997 79.3953 139.997 79.1699 140C78.9416 139.999 78.7088 139.996 78.4746 139.997C78.2433 139.997 78.0061 139.997 77.7675 140C77.5274 139.996 77.2843 139.996 77.0398 139.997C76.7938 139.997 76.5448 139.997 76.2944 139.999C76.0425 139.999 75.7921 140 75.5373 139.997C75.2824 140 75.0246 140 74.7639 140H73.9758H73.1729H72.3569H71.5275H70.6849H69.8305C69.5433 139.999 69.256 140 68.9643 140C68.6741 140 68.3795 139.999 68.0879 140C67.7918 140 67.4971 139.999 67.1981 140C66.9005 139.997 66.6015 140 66.301 139.999C65.999 140 65.697 139.999 65.3906 139.999C65.0872 140 64.7822 140 64.4729 139.997C64.1665 140 63.8586 140 63.5493 139.999C63.2385 140 62.9262 139.997 62.6139 140C62.3001 140 61.9863 140 61.6711 139.997C61.3559 140 61.0391 140 60.718 139.999C60.4028 140 60.0861 140 59.7664 139.997C59.4438 139.996 59.1241 139.997 58.8015 140C58.4804 139.999 58.1563 139.997 57.8337 140C57.5111 139.996 57.1856 139.999 56.86 140C56.5345 140 56.2074 139.997 55.8804 140C55.5534 140 55.2249 140 54.8964 139.996C54.5664 139.997 54.2394 140 53.9094 140C53.5794 140 53.2495 140 52.918 139.997C52.5866 139.997 52.2566 140 51.9252 140C51.5937 140 51.2579 139.997 50.9294 140C50.5935 139.997 50.2635 139.996 49.9306 139.997C49.5962 139.999 49.2648 139.999 48.9274 139.997C48.5989 140 48.2616 139.997 47.9302 139.999C47.5958 140 47.2614 140 46.9299 140H45.9282C45.5953 140 45.2609 139.997 44.9265 139.996C44.5951 140 44.2622 140 43.9293 140C43.5963 140 43.2605 139.997 42.9305 139.999C42.5991 139.999 42.2632 139.999 41.9318 139.997C41.6033 140 41.2703 139.997 40.9404 139.999C40.6089 140 40.279 140 39.9505 139.997C39.619 140 39.292 140 38.9635 140C38.635 139.999 38.3065 140 37.9795 140C37.651 139.999 37.324 139.997 36.9999 139.997C36.6714 139.996 36.3488 139.997 36.0247 139.999C35.7021 140 35.378 140 35.0569 140C34.7343 139.997 34.4146 140 34.092 139.997C33.7738 140 33.4542 140 33.1374 140C32.8193 140 32.504 140 32.1858 139.997C31.8721 140 31.5568 140 31.246 140C30.9322 140 30.6199 140 30.3091 139.997C30.0012 140 29.6919 139.999 29.384 139.999C29.0776 140 28.7697 139.999 28.4663 140C28.1614 139.999 27.8594 140 27.5589 140H26.6603C26.3627 140 26.0666 139.997 25.772 139.997C25.4759 139.999 25.1843 139.999 24.8941 140C24.6039 139.999 24.3122 139.997 24.0279 140H23.1735C22.8877 140 22.6108 139.999 22.3324 139.999C22.051 140 21.777 140 21.5001 139.997C21.2276 139.999 20.9565 139.999 20.684 139.996C20.4159 140 20.1478 140 19.8841 139.999C19.616 140 19.3553 140 19.0945 139.996C18.8338 139.999 18.5745 139.997 18.3212 140C18.0663 140 17.8129 139.997 17.5625 139.999C17.3121 140 17.0631 139.997 16.8201 139.999C16.5741 139.999 16.331 139.997 16.0894 139.996C15.8523 140 15.6151 139.997 15.3794 139.997H14.6885C14.4602 139.997 14.2363 140 14.0153 139.997C13.7885 139.996 13.5719 139.999 13.3569 139.999H12.719C12.5098 139.997 12.3021 139.997 12.0974 139.996C11.6879 139.996 11.2975 139.997 10.9189 140C10.5374 140 10.1706 139.997 9.82146 139.999C9.46939 140 9.13058 139.999 8.80945 140C8.48684 139.999 8.17602 139.999 7.88582 139.997C7.59268 139.997 7.31869 140 7.05795 139.999C6.79574 139.997 6.55268 139.997 6.32435 139.999C5.87212 139.997 5.48764 139.999 5.17535 139.999C4.54929 140 4.21637 140 4.21637 140C3.9026 139.999 3.59915 139.965 3.31337 139.91C3.02317 139.85 2.7477 139.764 2.48844 139.652C2.22623 139.539 1.98465 139.403 1.75926 139.244C1.53241 139.084 1.32765 138.904 1.14057 138.705C0.95496 138.502 0.792921 138.285 0.654451 138.05C0.515981 137.815 0.399607 137.564 0.309749 137.3C0.22431 137.035 0.163913 136.759 0.127086 136.472C0.0976246 136.185 0.099098 135.887 0.12856 135.582C0.12856 135.582 0.140344 135.463 0.16244 135.233C0.186009 135.003 0.218417 134.662 0.26261 134.218C0.284706 133.996 0.308275 133.747 0.334791 133.473C0.362779 133.2 0.390769 132.901 0.423177 132.579C0.454111 132.256 0.487992 131.908 0.524819 131.54C0.561646 131.169 0.599947 130.779 0.63972 130.363C0.660343 130.155 0.680966 129.942 0.703062 129.722C0.723685 129.504 0.745782 129.28 0.767878 129.051C0.791447 128.822 0.813544 128.588 0.837113 128.348C0.860682 128.108 0.884252 127.862 0.909294 127.611C0.934336 127.361 0.959379 127.103 0.984422 126.845C1.00946 126.585 1.03598 126.319 1.06249 126.05C1.08901 125.78 1.11553 125.506 1.14351 125.226C1.17003 124.947 1.19802 124.661 1.22748 124.369C1.25547 124.082 1.28346 123.787 1.31292 123.49C1.34238 123.192 1.37184 122.89 1.4013 122.582C1.43224 122.276 1.46317 121.964 1.49411 121.648C1.52504 121.33 1.55598 121.009 1.58691 120.686C1.61932 120.364 1.65173 120.035 1.68414 119.702C1.71654 119.369 1.74895 119.034 1.78283 118.69C1.80824 118.436 1.83365 118.177 1.85907 117.918L1.88448 117.659C1.91836 117.312 1.95224 116.959 1.98759 116.602C2.02295 116.247 2.0583 115.887 2.09365 115.523L2.1193 115.26C2.14618 114.984 2.17326 114.706 2.20119 114.424C2.22887 114.135 2.25745 113.843 2.28623 113.549L2.3102 113.303C2.34703 112.926 2.38533 112.543 2.42215 112.163C2.46045 111.779 2.49728 111.391 2.53705 110.999C2.55185 110.837 2.56767 110.674 2.58366 110.51L2.59303 110.413C2.61218 110.217 2.6328 110.02 2.65195 109.821L2.7094 109.226C2.73003 109.027 2.74918 108.827 2.76833 108.625C2.78895 108.424 2.8081 108.221 2.82872 108.018C2.84787 107.815 2.8685 107.613 2.88765 107.409C2.90827 107.206 2.92742 107 2.94804 106.795C2.96867 106.592 2.98782 106.386 3.00844 106.179L3.00846 106.179C3.02908 105.972 3.04969 105.764 3.06884 105.556L3.13071 104.93L3.13112 104.926C3.15161 104.717 3.17209 104.508 3.19258 104.301C3.2132 104.089 3.23382 103.878 3.25445 103.669L3.31632 103.031C3.33694 102.818 3.35903 102.604 3.37966 102.391L3.38506 102.335C3.40389 102.14 3.42283 101.943 3.443 101.747L3.44303 101.747C3.46364 101.53 3.48426 101.314 3.50634 101.097L3.51719 100.985C3.53424 100.808 3.55146 100.629 3.56969 100.449C3.59031 100.231 3.61241 100.013 3.63303 99.7951C3.65513 99.5771 3.67575 99.3576 3.69784 99.1381C3.71994 98.9186 3.74056 98.6962 3.76266 98.4767C3.78476 98.2587 3.80538 98.0377 3.82748 97.8153C3.84957 97.5943 3.87167 97.3719 3.89229 97.1494L3.89233 97.1491C3.91441 96.9268 3.9365 96.7044 3.95858 96.4777C3.98068 96.2568 4.00277 96.0328 4.02487 95.806C4.04549 95.585 4.06759 95.3582 4.08968 95.1357L4.15597 94.4596L4.22226 93.7805C4.24436 93.5536 4.26793 93.3253 4.29002 93.097C4.31212 92.8716 4.33422 92.6448 4.35631 92.4135L4.36816 92.2924C4.38635 92.1065 4.40472 91.9187 4.42407 91.73L4.49036 91.042C4.51393 90.8093 4.53603 90.581 4.55813 90.3512C4.58169 90.1214 4.60379 89.8916 4.62589 89.6618C4.64946 89.4305 4.67155 89.1992 4.69365 88.9679C4.71722 88.7322 4.73932 88.5039 4.76288 88.2712L4.76987 88.198C4.78966 87.9908 4.80956 87.7823 4.83065 87.5714C4.85422 87.3387 4.87631 87.1104 4.89841 86.8776C4.92198 86.6434 4.94407 86.4107 4.96764 86.1779C4.98773 85.965 5.00903 85.7521 5.03044 85.5381L5.03688 85.4738C5.05897 85.241 5.08254 85.0068 5.10464 84.7711C5.12821 84.5354 5.15031 84.3056 5.17387 84.0699C5.19597 83.8357 5.21954 83.5971 5.24311 83.3643C5.26521 83.1301 5.28878 82.8944 5.31235 82.6587C5.33442 82.4232 5.35796 82.1878 5.38151 81.9524L5.38158 81.9516C5.40002 81.7549 5.41949 81.5582 5.43913 81.3598L5.45082 81.2416C5.47438 81.0044 5.49648 80.7717 5.52005 80.536C5.54362 80.2988 5.56572 80.0631 5.58928 79.823C5.61285 79.5888 5.63495 79.3531 5.65852 79.1159L5.66438 79.057C5.68599 78.8397 5.70749 78.6234 5.72776 78.4059C5.75132 78.1687 5.77489 77.9286 5.79846 77.6944C5.82056 77.4572 5.84413 77.2186 5.8677 76.9814C5.89127 76.7457 5.91484 76.5071 5.93693 76.2714C5.9605 76.0328 5.98407 75.7986 6.00764 75.5614C6.02973 75.3243 6.05329 75.0872 6.07685 74.8501L6.07688 74.8499C6.10045 74.6112 6.12254 74.3741 6.14611 74.1369C6.16968 73.8983 6.19325 73.6626 6.21682 73.4254C6.23889 73.1899 6.26244 72.953 6.28598 72.7161L6.28605 72.7154C6.30962 72.4782 6.33172 72.2411 6.35529 72.0024C6.37886 71.7667 6.40243 71.5266 6.42452 71.2924L6.49523 70.5809C6.51532 70.3666 6.53663 70.1523 6.55804 69.937L6.56447 69.8723C6.58804 69.6352 6.61013 69.3995 6.6337 69.1623C6.65727 68.9266 6.67937 68.6894 6.70294 68.4537C6.72651 68.218 6.7486 67.9809 6.77217 67.7452C6.79574 67.5095 6.81784 67.2753 6.84141 67.0396C6.86498 66.8039 6.88707 66.5682 6.91064 66.334C6.93421 66.0968 6.95631 65.8611 6.97988 65.6284C7.00345 65.3927 7.02554 65.1585 7.04911 64.9242C7.07121 64.6915 7.09478 64.4573 7.11687 64.2216L7.1228 64.1627C7.14439 63.9483 7.16587 63.735 7.18611 63.5204C7.20968 63.2876 7.23177 63.0534 7.25534 62.8207L7.25538 62.8203C7.27746 62.5877 7.29955 62.3551 7.32311 62.1224C7.3452 61.8911 7.36877 61.6584 7.39087 61.4257C7.41444 61.1944 7.43653 60.9616 7.4601 60.7304C7.4822 60.4961 7.5043 60.2678 7.52786 60.0365C7.54996 59.8053 7.57206 59.5755 7.59563 59.3442C7.61772 59.1159 7.63982 58.8831 7.66339 58.6548L7.72968 57.9683C7.75177 57.7385 7.77534 57.5102 7.79744 57.2819C7.81954 57.0535 7.84163 56.8237 7.86373 56.5984L7.87375 56.496C7.89253 56.304 7.91148 56.1104 7.93149 55.9178C7.95359 55.6909 7.97568 55.4626 7.99778 55.2387C8.01988 55.0133 8.04197 54.7865 8.06407 54.5626L8.06413 54.5619C8.08621 54.3367 8.10828 54.1116 8.12888 53.8879C8.15098 53.6654 8.17308 53.4415 8.19517 53.2147C8.21727 52.9937 8.23936 52.7713 8.25999 52.5488L8.32628 51.883C8.34837 51.6606 8.369 51.4396 8.39109 51.2187C8.4117 50.9993 8.43378 50.78 8.45586 50.5606L8.45591 50.5602C8.47653 50.3407 8.49863 50.1212 8.51925 49.9032C8.54135 49.6852 8.56197 49.4672 8.58407 49.2491C8.60469 49.0311 8.62679 48.8146 8.64741 48.598C8.66951 48.3815 8.69013 48.1679 8.71075 47.9469C8.73285 47.7319 8.75347 47.5212 8.77409 47.3076L8.77874 47.2595C8.79782 47.0618 8.817 46.863 8.83744 46.6668L8.89931 46.029L8.96118 45.3955L9.02305 44.768C9.04367 44.5574 9.06429 44.3467 9.08344 44.1419L9.14531 43.5188C9.16594 43.3126 9.18509 43.1049 9.20571 42.9016C9.22633 42.6954 9.24548 42.4921 9.2661 42.2873C9.28526 42.084 9.30588 41.8822 9.32503 41.6775C9.34565 41.4771 9.3648 41.2739 9.38542 41.0691L9.44287 40.471C9.4635 40.2692 9.48265 40.0733 9.5018 39.8744C9.52095 39.6741 9.5401 39.4811 9.55925 39.2852C9.5784 39.0878 9.59755 38.8919 9.6167 38.6974C9.655 38.3071 9.6933 37.9167 9.7316 37.5337C9.76843 37.1507 9.80525 36.7721 9.84208 36.395C9.88038 36.0164 9.91574 35.6437 9.95256 35.274C9.98939 34.9028 10.0247 34.536 10.0601 34.1736C10.0955 33.8112 10.1308 33.4518 10.1662 33.0953C10.2015 32.7388 10.2354 32.3853 10.2693 32.0391C10.3032 31.69 10.337 31.3467 10.3709 31.0065C10.4033 30.6647 10.4372 30.3288 10.4696 29.9959C10.502 29.663 10.5344 29.3345 10.5654 29.0104C10.5978 28.6863 10.6287 28.3652 10.6596 28.05C10.6906 27.7347 10.7215 27.4224 10.7524 27.1131C10.7819 26.8082 10.8114 26.5047 10.8408 26.2071C10.8703 25.9096 10.8983 25.615 10.9263 25.3262C10.9557 25.036 10.9837 24.7503 11.0102 24.4718C11.0382 24.192 11.0647 23.918 11.0913 23.6454C11.1178 23.3744 11.1443 23.1122 11.1693 22.8529C11.1944 22.5922 11.2194 22.3373 11.2445 22.0869C11.268 21.8365 11.2931 21.5905 11.3166 21.3504C11.3402 21.1103 11.3623 20.8716 11.3844 20.6462C11.408 20.415 11.4301 20.194 11.4507 19.976C11.4728 19.7565 11.4934 19.5429 11.514 19.3352C11.5538 18.9198 11.5921 18.5279 11.6289 18.1567C11.6658 17.787 11.6996 17.4423 11.7306 17.1197C11.7615 16.7971 11.791 16.498 11.8175 16.224C11.8455 15.9515 11.869 15.7026 11.8911 15.4801C11.9339 15.0353 11.9677 14.695 11.9913 14.4637C12.0134 14.2354 12.0252 14.1175 12.0252 14.1175C12.0547 13.8082 12.1121 13.5121 12.2005 13.2263C12.2859 12.9391 12.4023 12.6606 12.5408 12.394C12.6807 12.1289 12.8428 11.8799 13.021 11.6472C13.2081 11.4129 13.4055 11.1935 13.6279 10.9931C13.8489 10.7913 14.086 10.6131 14.3394 10.4525C14.5928 10.2919 14.8579 10.1549 15.1305 10.0459C15.4089 9.93397 15.6976 9.84411 15.9922 9.78519C16.2839 9.72921 16.5859 9.69827 16.8908 9.69975H17.2856C17.5434 9.69975 17.9264 9.6968 18.4051 9.69827C18.6467 9.69827 18.9133 9.69827 19.2035 9.6968C19.4952 9.6968 19.8046 9.69975 20.1419 9.6968C20.4686 9.69823 20.8134 9.69688 21.1776 9.69545L21.2084 9.69533C21.3984 9.69827 21.5899 9.69975 21.7859 9.69827C21.9832 9.6968 22.1821 9.69827 22.3898 9.6968C22.5975 9.6968 22.8082 9.69533 23.0174 9.69975C23.2368 9.69533 23.4549 9.6968 23.6758 9.6968C23.8983 9.6968 24.1236 9.69533 24.3534 9.6968C24.5803 9.69975 24.813 9.6968 25.0502 9.6968C25.2844 9.69975 25.526 9.6968 25.7691 9.69827C26.0092 9.69827 26.2567 9.69533 26.5041 9.69533C26.7502 9.69827 27.0006 9.6968 27.2525 9.69827C27.5058 9.69975 27.7622 9.6968 28.0199 9.69827C28.2748 9.69827 28.537 9.6968 28.7977 9.69533C29.0585 9.69533 29.3236 9.6968 29.5873 9.6968C29.851 9.69975 30.1191 9.69827 30.3843 9.6968C30.6538 9.69975 30.9219 9.69975 31.193 9.69533L31.1974 9.69535C31.467 9.69682 31.7351 9.69827 32.0032 9.69827C32.2786 9.69533 32.5512 9.69533 32.8251 9.6968C33.0977 9.69975 33.3717 9.69827 33.6442 9.6968C33.9197 9.69975 34.1922 9.6968 34.4706 9.69533C34.7416 9.69975 35.0186 9.6968 35.2926 9.69975C35.5651 9.6968 35.8376 9.69827 36.1116 9.69827C36.3871 9.69975 36.6596 9.69975 36.9306 9.69827C37.2017 9.69533 37.4727 9.69827 37.7438 9.6968C38.0134 9.69533 38.2844 9.6968 38.5496 9.69975C38.8191 9.6968 39.0843 9.69827 39.3494 9.69827C39.6131 9.6968 39.8753 9.69827 40.139 9.6968H40.9168C41.1731 9.69533 41.428 9.69975 41.6828 9.69827L41.6858 9.69826C41.9367 9.69679 42.1846 9.69534 42.4326 9.69827C42.6801 9.69827 42.9231 9.69827 43.1662 9.6968C43.4078 9.69975 43.6479 9.69533 43.8836 9.69975C44.1178 9.69975 44.352 9.6968 44.5804 9.69975C44.8087 9.69533 45.0341 9.69975 45.2565 9.69975L45.2631 9.6997C45.4832 9.69824 45.6991 9.69682 45.9106 9.69827C46.1242 9.69827 46.3348 9.69533 46.541 9.69827C46.7443 9.69975 46.9476 9.69533 47.1435 9.69827C47.3409 9.6968 47.5339 9.6968 47.7225 9.69827C48.0951 9.6968 48.4516 9.69975 48.786 9.69975C49.1204 9.6968 49.4327 9.69533 49.7244 9.69533C50.0131 9.69975 50.2783 9.69827 50.5169 9.69975C50.9957 9.69533 51.3742 9.69975 51.6335 9.6968C51.8898 9.69827 52.0283 9.69533 52.0283 9.69533L65.3818 9.69975C65.3818 9.69975 65.5188 9.69975 65.7751 9.69827C66.0314 9.69975 66.4085 9.69975 66.8888 9.6968C67.1304 9.69533 67.3955 9.69533 67.6842 9.69827C67.9744 9.69975 68.2867 9.69975 68.6226 9.69827C68.9555 9.6968 69.3105 9.6968 69.6847 9.6968C69.8747 9.69975 70.0662 9.6968 70.2636 9.69975C70.4566 9.69975 70.6628 9.69533 70.869 9.69975C71.0738 9.69827 71.283 9.69533 71.498 9.6968C71.7116 9.69827 71.9297 9.69975 72.1506 9.6968C72.3731 9.69827 72.5984 9.69975 72.8282 9.6968C73.0566 9.69973 73.2865 9.69829 73.5206 9.69683L73.525 9.6968C73.7607 9.6968 73.9993 9.69827 74.2424 9.6968C74.484 9.69975 74.7285 9.69975 74.9775 9.69975C75.225 9.6968 75.4739 9.69975 75.7273 9.6968C75.9777 9.69533 76.234 9.69975 76.4918 9.6968C76.7496 9.6968 77.0089 9.6968 77.2696 9.69827C77.5303 9.69975 77.794 9.69827 78.0577 9.69975C78.3229 9.69827 78.591 9.6968 78.8546 9.6968C79.1257 9.69975 79.3908 9.69827 79.6619 9.69827L79.6641 9.69826C79.9359 9.69679 80.2062 9.69533 80.478 9.6968C80.7476 9.6968 81.0186 9.69826 81.2911 9.69972L81.2955 9.69975C81.5681 9.6968 81.8406 9.69827 82.1146 9.69827L82.1168 9.69826C82.393 9.69679 82.6662 9.69534 82.9395 9.69975C83.2135 9.69975 83.486 9.69827 83.7615 9.69827C84.0355 9.69827 84.3095 9.69975 84.5835 9.69533C84.856 9.69533 85.13 9.69975 85.401 9.69827C85.6706 9.69533 85.9446 9.6968 86.2142 9.69533C86.4852 9.69827 86.7533 9.6968 87.0214 9.69827C87.2866 9.69533 87.5547 9.69827 87.8213 9.69827C88.085 9.69975 88.3487 9.6968 88.6094 9.69827C88.8701 9.69975 89.1293 9.69975 89.387 9.69975H89.3872L89.3937 9.69971C89.6493 9.69825 89.9005 9.69681 90.1488 9.69827C90.4051 9.69975 90.6555 9.69827 90.903 9.69827C91.149 9.69533 91.395 9.69533 91.6366 9.6968C91.8797 9.69827 92.1198 9.6968 92.354 9.6968C92.5897 9.69533 92.818 9.6968 93.0508 9.69533C93.2806 9.69975 93.5045 9.69827 93.7298 9.69533C93.9479 9.6968 94.1673 9.69827 94.3839 9.69533C94.5975 9.69827 94.8081 9.69975 95.0114 9.69827C95.2177 9.69827 95.421 9.69975 95.6183 9.69827L95.625 9.69822C95.8186 9.69677 96.0079 9.69534 96.1928 9.6968C96.57 9.69975 96.9264 9.69827 97.2608 9.69827C97.5967 9.69827 97.909 9.69975 98.1992 9.69975C98.4879 9.69533 98.7545 9.69827 98.9947 9.69975C99.4763 9.69827 99.8535 9.69975 100.11 9.69975H100.506C100.808 9.6968 101.107 9.72626 101.39 9.78666C101.674 9.84411 101.944 9.93102 102.197 10.043C102.453 10.1564 102.695 10.2934 102.917 10.454C103.14 10.6116 103.345 10.7913 103.529 10.9916C103.711 11.192 103.876 11.4115 104.018 11.6472C104.156 11.8799 104.274 12.1318 104.366 12.3955C104.455 12.6606 104.52 12.9391 104.554 13.2248C104.588 13.5106 104.597 13.8111 104.57 14.1146C104.57 14.1146 104.561 14.2354 104.542 14.4652C104.522 14.692 104.495 15.0353 104.46 15.4801C104.439 15.7011 104.42 15.9515 104.398 16.224C104.381 16.4359 104.362 16.6667 104.341 16.9108L104.324 17.1182C104.298 17.4423 104.267 17.787 104.237 18.1567C104.208 18.5265 104.175 18.9198 104.137 19.3337C104.124 19.5429 104.106 19.7565 104.087 19.973C104.069 20.194 104.05 20.415 104.033 20.6462C104.011 20.8712 103.991 21.1094 103.972 21.3475L103.972 21.3489C103.952 21.589 103.932 21.8335 103.912 22.0854C103.893 22.3373 103.869 22.5892 103.85 22.8529C103.828 23.1122 103.804 23.3744 103.785 23.6454C103.76 23.915 103.739 24.192 103.717 24.4718C103.691 24.7503 103.667 25.036 103.647 25.3262C103.623 25.615 103.598 25.9081 103.57 26.2057C103.548 26.5032 103.524 26.8082 103.499 27.1146C103.473 27.4224 103.448 27.7333 103.418 28.0485C103.395 28.3667 103.37 28.6863 103.339 29.0089C103.315 29.3345 103.289 29.663 103.259 29.9959C103.231 30.3288 103.206 30.6647 103.178 31.0065C103.149 31.3467 103.119 31.69 103.093 32.0391C103.06 32.3867 103.032 32.7388 103.003 33.0938C102.973 33.4488 102.943 33.8097 102.916 34.1751C102.887 34.536 102.854 34.9028 102.826 35.274C102.792 35.6423 102.764 36.0179 102.73 36.3935C102.702 36.7721 102.667 37.1507 102.636 37.5337C102.605 37.9196 102.571 38.3071 102.543 38.6974C102.526 38.8904 102.509 39.0878 102.495 39.2852C102.478 39.4811 102.461 39.6785 102.446 39.8744C102.425 40.0718 102.409 40.2692 102.396 40.4725C102.377 40.6699 102.364 40.8717 102.343 41.0706C102.33 41.2739 102.309 41.4742 102.297 41.6789C102.277 41.8808 102.263 42.084 102.244 42.2873C102.227 42.4891 102.212 42.6954 102.196 42.9016C102.179 43.1049 102.159 43.3111 102.146 43.5188C102.128 43.7265 102.109 43.9328 102.093 44.1419C102.072 44.3452 102.059 44.5574 102.042 44.768C102.023 44.9772 102.007 45.1864 101.991 45.3955C101.97 45.6062 101.956 45.8183 101.936 46.0275C101.92 46.2411 101.901 46.4532 101.882 46.6653C101.866 46.8789 101.851 47.094 101.833 47.3076L101.831 47.3311C101.813 47.5368 101.794 47.7413 101.779 47.9513C101.76 48.1679 101.743 48.3815 101.724 48.598C101.708 48.8146 101.689 49.0311 101.673 49.2491C101.655 49.4672 101.633 49.6837 101.617 49.9032C101.598 50.1212 101.581 50.3407 101.564 50.5602C101.546 50.7797 101.528 50.9992 101.508 51.2187C101.492 51.4396 101.472 51.6591 101.452 51.883C101.437 52.104 101.416 52.3264 101.399 52.5488C101.38 52.7713 101.363 52.9937 101.343 53.2176C101.324 53.4386 101.307 53.664 101.287 53.8849C101.271 54.1088 101.251 54.3372 101.234 54.5626C101.215 54.7879 101.195 55.0133 101.175 55.2387C101.157 55.4641 101.138 55.6909 101.122 55.9178C101.104 56.1446 101.083 56.373 101.063 56.5984C101.042 56.8237 101.028 57.0535 101.008 57.2819C100.988 57.5087 100.972 57.7385 100.951 57.9654C100.933 58.1967 100.916 58.4265 100.895 58.6548C100.874 58.8861 100.855 59.1159 100.836 59.3442C100.82 59.5755 100.799 59.8023 100.783 60.0365C100.762 60.2678 100.743 60.4991 100.721 60.7289C100.706 60.9616 100.686 61.1944 100.664 61.4242C100.649 61.6584 100.63 61.8912 100.606 62.121C100.591 62.3552 100.569 62.5879 100.55 62.8192C100.534 63.0534 100.512 63.2876 100.493 63.5189C100.475 63.7546 100.454 63.9888 100.434 64.2216C100.418 64.4573 100.396 64.6885 100.379 64.9242C100.36 65.1555 100.341 65.3927 100.317 65.6284C100.3 65.8369 100.284 66.0515 100.268 66.2644L100.263 66.334C100.241 66.5682 100.222 66.8039 100.201 67.0381C100.185 67.2753 100.161 67.511 100.145 67.7422L100.143 67.763C100.123 67.9946 100.103 68.2249 100.088 68.4537C100.067 68.6894 100.049 68.9266 100.027 69.1623C100.007 69.398 99.989 69.6337 99.9684 69.8694C99.9507 70.1095 99.9301 70.3422 99.9124 70.5809L99.8505 71.2894C99.8343 71.5295 99.8122 71.7638 99.7945 72.0024C99.7739 72.2411 99.7533 72.4782 99.7356 72.7154C99.712 72.9511 99.6958 73.1897 99.6767 73.4254C99.6575 73.6626 99.6384 73.8997 99.6163 74.1369C99.5971 74.3741 99.5765 74.6098 99.5603 74.8499C99.5397 75.0871 99.5205 75.3242 99.5014 75.5614C99.4793 75.7986 99.4601 76.0328 99.441 76.2714L99.4347 76.3482C99.4176 76.5577 99.4003 76.7703 99.3806 76.9829C99.3644 77.2201 99.3452 77.4572 99.3246 77.6944C99.3025 77.9272 99.2834 78.1673 99.2657 78.4044C99.2466 78.6431 99.2274 78.8788 99.2053 79.1145C99.1891 79.3531 99.167 79.5888 99.1449 79.823C99.1287 80.0631 99.1095 80.2974 99.0874 80.536C99.0683 80.7702 99.0492 81.0074 99.033 81.2416C99.0123 81.4802 98.9932 81.7159 98.9725 81.9516C98.9519 82.1873 98.9357 82.423 98.9151 82.6572C98.8945 82.8944 98.8753 83.1301 98.8577 83.3643C98.8382 83.5687 98.8211 83.7776 98.8043 83.9832L98.7972 84.0684C98.7781 84.3056 98.759 84.534 98.7413 84.7726C98.7207 84.989 98.7027 85.2079 98.6849 85.4247L98.6809 85.4738C98.6632 85.7095 98.6441 85.9437 98.6234 86.1779C98.6058 86.4107 98.5866 86.6449 98.5675 86.8776C98.5468 87.1104 98.5277 87.3416 98.5085 87.5714C98.4894 87.8071 98.4702 88.0399 98.4481 88.2712C98.4319 88.5039 98.4143 88.7366 98.3936 88.9665C98.3745 89.1992 98.3553 89.4305 98.3377 89.6618C98.317 89.8901 98.2979 90.1214 98.2802 90.3512C98.2625 90.5824 98.2419 90.8108 98.2242 91.042L98.2241 91.0436C98.205 91.2729 98.1859 91.5022 98.1638 91.73C98.1476 91.9598 98.1285 92.1866 98.1079 92.4135C98.0872 92.6448 98.071 92.8701 98.0533 93.0985C98.0357 93.3253 98.0165 93.5536 97.9944 93.7805C97.9767 94.0059 97.9605 94.2327 97.9399 94.4596C97.9222 94.685 97.9016 94.9104 97.8869 95.1357C97.8677 95.3582 97.8486 95.5836 97.8309 95.8089C97.8103 96.0328 97.7911 96.2568 97.7749 96.4777C97.7573 96.7046 97.7366 96.927 97.719 97.1494C97.6998 97.3719 97.6836 97.5928 97.6645 97.8138C97.6468 98.0377 97.6276 98.2587 97.6085 98.4782C97.5893 98.6962 97.5731 98.9171 97.554 99.1381C97.5363 99.3576 97.5186 99.5771 97.5024 99.7936C97.4818 100.013 97.4656 100.231 97.4464 100.448C97.4288 100.667 97.4126 100.884 97.3934 101.099C97.3772 101.312 97.358 101.53 97.3404 101.747C97.3197 101.961 97.3035 102.176 97.2873 102.391C97.2697 102.604 97.2505 102.818 97.2314 103.03C97.2152 103.245 97.2004 103.457 97.1827 103.669C97.1636 103.878 97.1459 104.089 97.1283 104.301C97.1106 104.512 97.0944 104.721 97.0782 104.93C97.0597 105.132 97.044 105.333 97.0284 105.533L97.0266 105.556C97.0075 105.764 96.9927 105.972 96.9751 106.179C96.9588 106.386 96.9412 106.592 96.925 106.794C96.9043 107.001 96.8911 107.206 96.8719 107.409C96.8579 107.586 96.8428 107.76 96.8275 107.937L96.8204 108.019C96.8071 108.22 96.788 108.424 96.7718 108.625L96.7669 108.68C96.7509 108.863 96.7349 109.045 96.7202 109.224C96.707 109.423 96.6908 109.624 96.6745 109.821C96.6583 110.02 96.6421 110.217 96.6215 110.413C96.6106 110.596 96.5958 110.776 96.5808 110.958L96.5773 111.001C96.5449 111.391 96.514 111.779 96.4816 112.163C96.4492 112.545 96.4182 112.923 96.3843 113.302C96.3564 113.68 96.3225 114.055 96.293 114.424C96.2621 114.794 96.2311 115.159 96.2017 115.52C96.1737 115.886 96.1442 116.247 96.1118 116.603C96.0853 116.959 96.0559 117.312 96.0264 117.659C95.9969 118.004 95.9704 118.352 95.9409 118.692C95.9144 119.031 95.8864 119.369 95.857 119.701C95.8319 120.035 95.8054 120.364 95.7774 120.686C95.748 121.012 95.7244 121.332 95.6964 121.648C95.6699 121.964 95.6463 122.276 95.6213 122.584C95.5948 122.89 95.5697 123.191 95.5462 123.49C95.5226 123.789 95.4961 124.08 95.471 124.371C95.446 124.661 95.4268 124.945 95.4003 125.226C95.3797 125.506 95.3576 125.78 95.334 126.051C95.3134 126.319 95.2898 126.586 95.2692 126.845C95.2471 127.106 95.2265 127.361 95.2059 127.611C95.1838 127.86 95.1632 128.108 95.1455 128.348C95.1219 128.587 95.1028 128.822 95.0866 129.051C95.0674 129.28 95.0468 129.504 95.0306 129.722C95.0129 129.942 94.9952 130.155 94.9775 130.363C94.9437 130.779 94.9098 131.17 94.8789 131.542C94.8494 131.91 94.8185 132.255 94.7919 132.577C94.7669 132.901 94.7404 133.2 94.7198 133.474C94.6977 133.747 94.6741 133.996 94.6579 134.218C94.6196 134.662 94.5916 135.003 94.5724 135.232Z" fill="#74818C"/>
<mask id="mask0_30_504" style="mask-type:alpha" maskUnits="userSpaceOnUse" x="0" y="9" width="105" height="131">
<path d="M94.5724 135.232C94.5533 135.463 94.543 135.582 94.543 135.582C94.515 135.886 94.462 136.185 94.3765 136.472C94.2926 136.758 94.1806 137.036 94.0436 137.3C93.9051 137.562 93.7431 137.812 93.5619 138.05C93.3793 138.285 93.1715 138.502 92.955 138.705C92.7326 138.904 92.491 139.084 92.2347 139.241C91.9813 139.4 91.7147 139.539 91.4333 139.652C91.1534 139.763 90.8632 139.85 90.5627 139.909C90.2651 139.969 89.9514 139.999 89.6465 140C89.6465 140 89.3121 139.997 88.686 139.997C88.3693 139.997 87.9878 139.997 87.534 140C87.3043 139.997 87.0641 139.997 86.8034 139.996C86.5412 140 86.2657 139.997 85.9741 139.997C85.6809 140 85.3745 140 85.0519 139.999C84.7293 140 84.392 140 84.0384 139.997C83.6863 139.997 83.3225 140 82.941 140C82.5609 139.999 82.1676 139.997 81.7596 139.997C81.5577 139.999 81.3515 139.997 81.1394 139.999C80.9317 139.999 80.7181 139.997 80.503 140L79.8446 139.996C79.6236 139.997 79.3953 139.997 79.1699 140C78.9416 139.999 78.7088 139.996 78.4746 139.997C78.2433 139.997 78.0061 139.997 77.7675 140C77.5274 139.996 77.2843 139.996 77.0398 139.997C76.7938 139.997 76.5448 139.997 76.2944 139.999C76.0425 139.999 75.7921 140 75.5373 139.997C75.2824 140 75.0246 140 74.7639 140H73.9758H73.1729H72.3569H71.5275H70.6849H69.8305C69.5433 139.999 69.256 140 68.9643 140C68.6741 140 68.3795 139.999 68.0879 140C67.7918 140 67.4971 139.999 67.1981 140C66.9005 139.997 66.6015 140 66.301 139.999C65.999 140 65.697 139.999 65.3906 139.999C65.0872 140 64.7822 140 64.4729 139.997C64.1665 140 63.8586 140 63.5493 139.999C63.2385 140 62.9262 139.997 62.6139 140C62.3001 140 61.9863 140 61.6711 139.997C61.3559 140 61.0391 140 60.718 139.999C60.4028 140 60.0861 140 59.7664 139.997C59.4438 139.996 59.1241 139.997 58.8015 140C58.4804 139.999 58.1563 139.997 57.8337 140C57.5111 139.996 57.1856 139.999 56.86 140C56.5345 140 56.2074 139.997 55.8804 140C55.5534 140 55.2249 140 54.8964 139.996C54.5664 139.997 54.2394 140 53.9094 140C53.5794 140 53.2495 140 52.918 139.997C52.5866 139.997 52.2566 140 51.9252 140C51.5937 140 51.2579 139.997 50.9294 140C50.5935 139.997 50.2635 139.996 49.9306 139.997C49.5962 139.999 49.2648 139.999 48.9274 139.997C48.5989 140 48.2616 139.997 47.9302 139.999C47.5958 140 47.2614 140 46.9299 140H45.9282C45.5953 140 45.2609 139.997 44.9265 139.996C44.5951 140 44.2622 140 43.9293 140C43.5963 140 43.2605 139.997 42.9305 139.999C42.5991 139.999 42.2632 139.999 41.9318 139.997C41.6033 140 41.2703 139.997 40.9404 139.999C40.6089 140 40.279 140 39.9505 139.997C39.619 140 39.292 140 38.9635 140C38.635 139.999 38.3065 140 37.9795 140C37.651 139.999 37.324 139.997 36.9999 139.997C36.6714 139.996 36.3488 139.997 36.0247 139.999C35.7021 140 35.378 140 35.0569 140C34.7343 139.997 34.4146 140 34.092 139.997C33.7738 140 33.4542 140 33.1374 140C32.8193 140 32.504 140 32.1858 139.997C31.8721 140 31.5568 140 31.246 140C30.9322 140 30.6199 140 30.3091 139.997C30.0012 140 29.6919 139.999 29.384 139.999C29.0776 140 28.7697 139.999 28.4663 140C28.1614 139.999 27.8594 140 27.5589 140H26.6603C26.3627 140 26.0666 139.997 25.772 139.997C25.4759 139.999 25.1843 139.999 24.8941 140C24.6039 139.999 24.3122 139.997 24.0279 140H23.1735C22.8877 140 22.6108 139.999 22.3324 139.999C22.051 140 21.777 140 21.5001 139.997C21.2276 139.999 20.9565 139.999 20.684 139.996C20.4159 140 20.1478 140 19.8841 139.999C19.616 140 19.3553 140 19.0945 139.996C18.8338 139.999 18.5745 139.997 18.3212 140C18.0663 140 17.8129 139.997 17.5625 139.999C17.3121 140 17.0631 139.997 16.8201 139.999C16.5741 139.999 16.331 139.997 16.0894 139.996C15.8523 140 15.6151 139.997 15.3794 139.997H14.6885C14.4602 139.997 14.2363 140 14.0153 139.997C13.7885 139.996 13.5719 139.999 13.3569 139.999H12.719C12.5098 139.997 12.3021 139.997 12.0974 139.996C11.6879 139.996 11.2975 139.997 10.9189 140C10.5374 140 10.1706 139.997 9.82146 139.999C9.46939 140 9.13058 139.999 8.80945 140C8.48684 139.999 8.17602 139.999 7.88582 139.997C7.59268 139.997 7.31869 140 7.05795 139.999C6.79574 139.997 6.55268 139.997 6.32435 139.999C5.87212 139.997 5.48764 139.999 5.17535 139.999C4.54929 140 4.21637 140 4.21637 140C3.9026 139.999 3.59915 139.965 3.31337 139.91C3.02317 139.85 2.7477 139.764 2.48844 139.652C2.22623 139.539 1.98465 139.403 1.75926 139.244C1.53241 139.084 1.32765 138.904 1.14057 138.705C0.95496 138.502 0.792921 138.285 0.654451 138.05C0.515981 137.815 0.399607 137.564 0.309749 137.3C0.22431 137.035 0.163913 136.759 0.127086 136.472C0.0976246 136.185 0.099098 135.887 0.12856 135.582C0.12856 135.582 0.140344 135.463 0.16244 135.233C0.186009 135.003 0.218417 134.662 0.26261 134.218C0.284706 133.996 0.308275 133.747 0.334791 133.473C0.362779 133.2 0.390769 132.901 0.423177 132.579C0.454111 132.256 0.487992 131.908 0.524819 131.54C0.561646 131.169 0.599947 130.779 0.63972 130.363C0.660343 130.155 0.680966 129.942 0.703062 129.722C0.723685 129.504 0.745782 129.28 0.767878 129.051C0.791447 128.822 0.813544 128.588 0.837113 128.348C0.860682 128.108 0.884252 127.862 0.909294 127.611C0.934336 127.361 0.959379 127.103 0.984422 126.845C1.00946 126.585 1.03598 126.319 1.06249 126.05C1.08901 125.78 1.11553 125.506 1.14351 125.226C1.17003 124.947 1.19802 124.661 1.22748 124.369C1.25547 124.082 1.28346 123.787 1.31292 123.49C1.34238 123.192 1.37184 122.89 1.4013 122.582C1.43224 122.276 1.46317 121.964 1.49411 121.648C1.52504 121.33 1.55598 121.009 1.58691 120.686C1.61932 120.364 1.65173 120.035 1.68414 119.702C1.71654 119.369 1.74895 119.034 1.78283 118.69C1.80824 118.436 1.83365 118.177 1.85907 117.918L1.88448 117.659C1.91836 117.312 1.95224 116.959 1.98759 116.602C2.02295 116.247 2.0583 115.887 2.09365 115.523L2.1193 115.26C2.14618 114.984 2.17326 114.706 2.20119 114.424C2.22887 114.135 2.25745 113.843 2.28623 113.549L2.3102 113.303C2.34703 112.926 2.38533 112.543 2.42215 112.163C2.46045 111.779 2.49728 111.391 2.53705 110.999C2.55185 110.837 2.56767 110.674 2.58366 110.51L2.59303 110.413C2.61218 110.217 2.6328 110.02 2.65195 109.821L2.7094 109.226C2.73003 109.027 2.74918 108.827 2.76833 108.625C2.78895 108.424 2.8081 108.221 2.82872 108.018C2.84787 107.815 2.8685 107.613 2.88765 107.409C2.90827 107.206 2.92742 107 2.94804 106.795C2.96867 106.592 2.98782 106.386 3.00844 106.179L3.00846 106.179C3.02908 105.972 3.04969 105.764 3.06884 105.556L3.13071 104.93L3.13112 104.926C3.15161 104.717 3.17209 104.508 3.19258 104.301C3.2132 104.089 3.23382 103.878 3.25445 103.669L3.31632 103.031C3.33694 102.818 3.35903 102.604 3.37966 102.391L3.38506 102.335C3.40389 102.14 3.42283 101.943 3.443 101.747L3.44303 101.747C3.46364 101.53 3.48426 101.314 3.50634 101.097L3.51719 100.985C3.53424 100.808 3.55146 100.629 3.56969 100.449C3.59031 100.231 3.61241 100.013 3.63303 99.7951C3.65513 99.5771 3.67575 99.3576 3.69784 99.1381C3.71994 98.9186 3.74056 98.6962 3.76266 98.4767C3.78476 98.2587 3.80538 98.0377 3.82748 97.8153C3.84957 97.5943 3.87167 97.3719 3.89229 97.1494L3.89233 97.1491C3.91441 96.9268 3.9365 96.7044 3.95858 96.4777C3.98068 96.2568 4.00277 96.0328 4.02487 95.806C4.04549 95.585 4.06759 95.3582 4.08968 95.1357L4.15597 94.4596L4.22226 93.7805C4.24436 93.5536 4.26793 93.3253 4.29002 93.097C4.31212 92.8716 4.33422 92.6448 4.35631 92.4135L4.36816 92.2924C4.38635 92.1065 4.40472 91.9187 4.42407 91.73L4.49036 91.042C4.51393 90.8093 4.53603 90.581 4.55813 90.3512C4.58169 90.1214 4.60379 89.8916 4.62589 89.6618C4.64946 89.4305 4.67155 89.1992 4.69365 88.9679C4.71722 88.7322 4.73932 88.5039 4.76288 88.2712L4.76987 88.198C4.78966 87.9908 4.80956 87.7823 4.83065 87.5714C4.85422 87.3387 4.87631 87.1104 4.89841 86.8776C4.92198 86.6434 4.94407 86.4107 4.96764 86.1779C4.98773 85.965 5.00903 85.7521 5.03044 85.5381L5.03688 85.4738C5.05897 85.241 5.08254 85.0068 5.10464 84.7711C5.12821 84.5354 5.15031 84.3056 5.17387 84.0699C5.19597 83.8357 5.21954 83.5971 5.24311 83.3643C5.26521 83.1301 5.28878 82.8944 5.31235 82.6587C5.33442 82.4232 5.35796 82.1878 5.38151 81.9524L5.38158 81.9516C5.40002 81.7549 5.41949 81.5582 5.43913 81.3598L5.45082 81.2416C5.47438 81.0044 5.49648 80.7717 5.52005 80.536C5.54362 80.2988 5.56572 80.0631 5.58928 79.823C5.61285 79.5888 5.63495 79.3531 5.65852 79.1159L5.66438 79.057C5.68599 78.8397 5.70749 78.6234 5.72776 78.4059C5.75132 78.1687 5.77489 77.9286 5.79846 77.6944C5.82056 77.4572 5.84413 77.2186 5.8677 76.9814C5.89127 76.7457 5.91484 76.5071 5.93693 76.2714C5.9605 76.0328 5.98407 75.7986 6.00764 75.5614C6.02973 75.3243 6.05329 75.0872 6.07685 74.8501L6.07688 74.8499C6.10045 74.6112 6.12254 74.3741 6.14611 74.1369C6.16968 73.8983 6.19325 73.6626 6.21682 73.4254C6.23889 73.1899 6.26244 72.953 6.28598 72.7161L6.28605 72.7154C6.30962 72.4782 6.33172 72.2411 6.35529 72.0024C6.37886 71.7667 6.40243 71.5266 6.42452 71.2924L6.49523 70.5809C6.51532 70.3666 6.53663 70.1523 6.55804 69.937L6.56447 69.8723C6.58804 69.6352 6.61013 69.3995 6.6337 69.1623C6.65727 68.9266 6.67937 68.6894 6.70294 68.4537C6.72651 68.218 6.7486 67.9809 6.77217 67.7452C6.79574 67.5095 6.81784 67.2753 6.84141 67.0396C6.86498 66.8039 6.88707 66.5682 6.91064 66.334C6.93421 66.0968 6.95631 65.8611 6.97988 65.6284C7.00345 65.3927 7.02554 65.1585 7.04911 64.9242C7.07121 64.6915 7.09478 64.4573 7.11687 64.2216L7.1228 64.1627C7.14439 63.9483 7.16587 63.735 7.18611 63.5204C7.20968 63.2876 7.23177 63.0534 7.25534 62.8207L7.25538 62.8203C7.27746 62.5877 7.29955 62.3551 7.32311 62.1224C7.3452 61.8911 7.36877 61.6584 7.39087 61.4257C7.41444 61.1944 7.43653 60.9616 7.4601 60.7304C7.4822 60.4961 7.5043 60.2678 7.52786 60.0365C7.54996 59.8053 7.57206 59.5755 7.59563 59.3442C7.61772 59.1159 7.63982 58.8831 7.66339 58.6548L7.72968 57.9683C7.75177 57.7385 7.77534 57.5102 7.79744 57.2819C7.81954 57.0535 7.84163 56.8237 7.86373 56.5984L7.87375 56.496C7.89253 56.304 7.91148 56.1104 7.93149 55.9178C7.95359 55.6909 7.97568 55.4626 7.99778 55.2387C8.01988 55.0133 8.04197 54.7865 8.06407 54.5626L8.06413 54.5619C8.08621 54.3367 8.10828 54.1116 8.12888 53.8879C8.15098 53.6654 8.17308 53.4415 8.19517 53.2147C8.21727 52.9937 8.23936 52.7713 8.25999 52.5488L8.32628 51.883C8.34837 51.6606 8.369 51.4396 8.39109 51.2187C8.4117 50.9993 8.43378 50.78 8.45586 50.5606L8.45591 50.5602C8.47653 50.3407 8.49863 50.1212 8.51925 49.9032C8.54135 49.6852 8.56197 49.4672 8.58407 49.2491C8.60469 49.0311 8.62679 48.8146 8.64741 48.598C8.66951 48.3815 8.69013 48.1679 8.71075 47.9469C8.73285 47.7319 8.75347 47.5212 8.77409 47.3076L8.77874 47.2595C8.79782 47.0618 8.817 46.863 8.83744 46.6668L8.89931 46.029L8.96118 45.3955L9.02305 44.768C9.04367 44.5574 9.06429 44.3467 9.08344 44.1419L9.14531 43.5188C9.16594 43.3126 9.18509 43.1049 9.20571 42.9016C9.22633 42.6954 9.24548 42.4921 9.2661 42.2873C9.28526 42.084 9.30588 41.8822 9.32503 41.6775C9.34565 41.4771 9.3648 41.2739 9.38542 41.0691L9.44287 40.471C9.4635 40.2692 9.48265 40.0733 9.5018 39.8744C9.52095 39.6741 9.5401 39.4811 9.55925 39.2852C9.5784 39.0878 9.59755 38.8919 9.6167 38.6974C9.655 38.3071 9.6933 37.9167 9.7316 37.5337C9.76843 37.1507 9.80525 36.7721 9.84208 36.395C9.88038 36.0164 9.91574 35.6437 9.95256 35.274C9.98939 34.9028 10.0247 34.536 10.0601 34.1736C10.0955 33.8112 10.1308 33.4518 10.1662 33.0953C10.2015 32.7388 10.2354 32.3853 10.2693 32.0391C10.3032 31.69 10.337 31.3467 10.3709 31.0065C10.4033 30.6647 10.4372 30.3288 10.4696 29.9959C10.502 29.663 10.5344 29.3345 10.5654 29.0104C10.5978 28.6863 10.6287 28.3652 10.6596 28.05C10.6906 27.7347 10.7215 27.4224 10.7524 27.1131C10.7819 26.8082 10.8114 26.5047 10.8408 26.2071C10.8703 25.9096 10.8983 25.615 10.9263 25.3262C10.9557 25.036 10.9837 24.7503 11.0102 24.4718C11.0382 24.192 11.0647 23.918 11.0913 23.6454C11.1178 23.3744 11.1443 23.1122 11.1693 22.8529C11.1944 22.5922 11.2194 22.3373 11.2445 22.0869C11.268 21.8365 11.2931 21.5905 11.3166 21.3504C11.3402 21.1103 11.3623 20.8716 11.3844 20.6462C11.408 20.415 11.4301 20.194 11.4507 19.976C11.4728 19.7565 11.4934 19.5429 11.514 19.3352C11.5538 18.9198 11.5921 18.5279 11.6289 18.1567C11.6658 17.787 11.6996 17.4423 11.7306 17.1197C11.7615 16.7971 11.791 16.498 11.8175 16.224C11.8455 15.9515 11.869 15.7026 11.8911 15.4801C11.9339 15.0353 11.9677 14.695 11.9913 14.4637C12.0134 14.2354 12.0252 14.1175 12.0252 14.1175C12.0547 13.8082 12.1121 13.5121 12.2005 13.2263C12.2859 12.9391 12.4023 12.6606 12.5408 12.394C12.6807 12.1289 12.8428 11.8799 13.021 11.6472C13.2081 11.4129 13.4055 11.1935 13.6279 10.9931C13.8489 10.7913 14.086 10.6131 14.3394 10.4525C14.5928 10.2919 14.8579 10.1549 15.1305 10.0459C15.4089 9.93397 15.6976 9.84411 15.9922 9.78519C16.2839 9.72921 16.5859 9.69827 16.8908 9.69975H17.2856C17.5434 9.69975 17.9264 9.6968 18.4051 9.69827C18.6467 9.69827 18.9133 9.69827 19.2035 9.6968C19.4952 9.6968 19.8046 9.69975 20.1419 9.6968C20.4686 9.69823 20.8134 9.69688 21.1776 9.69545L21.2084 9.69533C21.3984 9.69827 21.5899 9.69975 21.7859 9.69827C21.9832 9.6968 22.1821 9.69827 22.3898 9.6968C22.5975 9.6968 22.8082 9.69533 23.0174 9.69975C23.2368 9.69533 23.4549 9.6968 23.6758 9.6968C23.8983 9.6968 24.1236 9.69533 24.3534 9.6968C24.5803 9.69975 24.813 9.6968 25.0502 9.6968C25.2844 9.69975 25.526 9.6968 25.7691 9.69827C26.0092 9.69827 26.2567 9.69533 26.5041 9.69533C26.7502 9.69827 27.0006 9.6968 27.2525 9.69827C27.5058 9.69975 27.7622 9.6968 28.0199 9.69827C28.2748 9.69827 28.537 9.6968 28.7977 9.69533C29.0585 9.69533 29.3236 9.6968 29.5873 9.6968C29.851 9.69975 30.1191 9.69827 30.3843 9.6968C30.6538 9.69975 30.9219 9.69975 31.193 9.69533L31.1974 9.69535C31.467 9.69682 31.7351 9.69827 32.0032 9.69827C32.2786 9.69533 32.5512 9.69533 32.8251 9.6968C33.0977 9.69975 33.3717 9.69827 33.6442 9.6968C33.9197 9.69975 34.1922 9.6968 34.4706 9.69533C34.7416 9.69975 35.0186 9.6968 35.2926 9.69975C35.5651 9.6968 35.8376 9.69827 36.1116 9.69827C36.3871 9.69975 36.6596 9.69975 36.9306 9.69827C37.2017 9.69533 37.4727 9.69827 37.7438 9.6968C38.0134 9.69533 38.2844 9.6968 38.5496 9.69975C38.8191 9.6968 39.0843 9.69827 39.3494 9.69827C39.6131 9.6968 39.8753 9.69827 40.139 9.6968H40.9168C41.1731 9.69533 41.428 9.69975 41.6828 9.69827L41.6858 9.69826C41.9367 9.69679 42.1846 9.69534 42.4326 9.69827C42.6801 9.69827 42.9231 9.69827 43.1662 9.6968C43.4078 9.69975 43.6479 9.69533 43.8836 9.69975C44.1178 9.69975 44.352 9.6968 44.5804 9.69975C44.8087 9.69533 45.0341 9.69975 45.2565 9.69975L45.2631 9.6997C45.4832 9.69824 45.6991 9.69682 45.9106 9.69827C46.1242 9.69827 46.3348 9.69533 46.541 9.69827C46.7443 9.69975 46.9476 9.69533 47.1435 9.69827C47.3409 9.6968 47.5339 9.6968 47.7225 9.69827C48.0951 9.6968 48.4516 9.69975 48.786 9.69975C49.1204 9.6968 49.4327 9.69533 49.7244 9.69533C50.0131 9.69975 50.2783 9.69827 50.5169 9.69975C50.9957 9.69533 51.3742 9.69975 51.6335 9.6968C51.8898 9.69827 52.0283 9.69533 52.0283 9.69533L65.3818 9.69975C65.3818 9.69975 65.5188 9.69975 65.7751 9.69827C66.0314 9.69975 66.4085 9.69975 66.8888 9.6968C67.1304 9.69533 67.3955 9.69533 67.6842 9.69827C67.9744 9.69975 68.2867 9.69975 68.6226 9.69827C68.9555 9.6968 69.3105 9.6968 69.6847 9.6968C69.8747 9.69975 70.0662 9.6968 70.2636 9.69975C70.4566 9.69975 70.6628 9.69533 70.869 9.69975C71.0738 9.69827 71.283 9.69533 71.498 9.6968C71.7116 9.69827 71.9297 9.69975 72.1506 9.6968C72.3731 9.69827 72.5984 9.69975 72.8282 9.6968C73.0566 9.69973 73.2865 9.69829 73.5206 9.69683L73.525 9.6968C73.7607 9.6968 73.9993 9.69827 74.2424 9.6968C74.484 9.69975 74.7285 9.69975 74.9775 9.69975C75.225 9.6968 75.4739 9.69975 75.7273 9.6968C75.9777 9.69533 76.234 9.69975 76.4918 9.6968C76.7496 9.6968 77.0089 9.6968 77.2696 9.69827C77.5303 9.69975 77.794 9.69827 78.0577 9.69975C78.3229 9.69827 78.591 9.6968 78.8546 9.6968C79.1257 9.69975 79.3908 9.69827 79.6619 9.69827L79.6641 9.69826C79.9359 9.69679 80.2062 9.69533 80.478 9.6968C80.7476 9.6968 81.0186 9.69826 81.2911 9.69972L81.2955 9.69975C81.5681 9.6968 81.8406 9.69827 82.1146 9.69827L82.1168 9.69826C82.393 9.69679 82.6662 9.69534 82.9395 9.69975C83.2135 9.69975 83.486 9.69827 83.7615 9.69827C84.0355 9.69827 84.3095 9.69975 84.5835 9.69533C84.856 9.69533 85.13 9.69975 85.401 9.69827C85.6706 9.69533 85.9446 9.6968 86.2142 9.69533C86.4852 9.69827 86.7533 9.6968 87.0214 9.69827C87.2866 9.69533 87.5547 9.69827 87.8213 9.69827C88.085 9.69975 88.3487 9.6968 88.6094 9.69827C88.8701 9.69975 89.1293 9.69975 89.387 9.69975H89.3872L89.3937 9.69971C89.6493 9.69825 89.9005 9.69681 90.1488 9.69827C90.4051 9.69975 90.6555 9.69827 90.903 9.69827C91.149 9.69533 91.395 9.69533 91.6366 9.6968C91.8797 9.69827 92.1198 9.6968 92.354 9.6968C92.5897 9.69533 92.818 9.6968 93.0508 9.69533C93.2806 9.69975 93.5045 9.69827 93.7298 9.69533C93.9479 9.6968 94.1673 9.69827 94.3839 9.69533C94.5975 9.69827 94.8081 9.69975 95.0114 9.69827C95.2177 9.69827 95.421 9.69975 95.6183 9.69827L95.625 9.69822C95.8186 9.69677 96.0079 9.69534 96.1928 9.6968C96.57 9.69975 96.9264 9.69827 97.2608 9.69827C97.5967 9.69827 97.909 9.69975 98.1992 9.69975C98.4879 9.69533 98.7545 9.69827 98.9947 9.69975C99.4763 9.69827 99.8535 9.69975 100.11 9.69975H100.506C100.808 9.6968 101.107 9.72626 101.39 9.78666C101.674 9.84411 101.944 9.93102 102.197 10.043C102.453 10.1564 102.695 10.2934 102.917 10.454C103.14 10.6116 103.345 10.7913 103.529 10.9916C103.711 11.192 103.876 11.4115 104.018 11.6472C104.156 11.8799 104.274 12.1318 104.366 12.3955C104.455 12.6606 104.52 12.9391 104.554 13.2248C104.588 13.5106 104.597 13.8111 104.57 14.1146C104.57 14.1146 104.561 14.2354 104.542 14.4652C104.522 14.692 104.495 15.0353 104.46 15.4801C104.439 15.7011 104.42 15.9515 104.398 16.224C104.381 16.4359 104.362 16.6667 104.341 16.9108L104.324 17.1182C104.298 17.4423 104.267 17.787 104.237 18.1567C104.208 18.5265 104.175 18.9198 104.137 19.3337C104.124 19.5429 104.106 19.7565 104.087 19.973C104.069 20.194 104.05 20.415 104.033 20.6462C104.011 20.8712 103.991 21.1094 103.972 21.3475L103.972 21.3489C103.952 21.589 103.932 21.8335 103.912 22.0854C103.893 22.3373 103.869 22.5892 103.85 22.8529C103.828 23.1122 103.804 23.3744 103.785 23.6454C103.76 23.915 103.739 24.192 103.717 24.4718C103.691 24.7503 103.667 25.036 103.647 25.3262C103.623 25.615 103.598 25.9081 103.57 26.2057C103.548 26.5032 103.524 26.8082 103.499 27.1146C103.473 27.4224 103.448 27.7333 103.418 28.0485C103.395 28.3667 103.37 28.6863 103.339 29.0089C103.315 29.3345 103.289 29.663 103.259 29.9959C103.231 30.3288 103.206 30.6647 103.178 31.0065C103.149 31.3467 103.119 31.69 103.093 32.0391C103.06 32.3867 103.032 32.7388 103.003 33.0938C102.973 33.4488 102.943 33.8097 102.916 34.1751C102.887 34.536 102.854 34.9028 102.826 35.274C102.792 35.6423 102.764 36.0179 102.73 36.3935C102.702 36.7721 102.667 37.1507 102.636 37.5337C102.605 37.9196 102.571 38.3071 102.543 38.6974C102.526 38.8904 102.509 39.0878 102.495 39.2852C102.478 39.4811 102.461 39.6785 102.446 39.8744C102.425 40.0718 102.409 40.2692 102.396 40.4725C102.377 40.6699 102.364 40.8717 102.343 41.0706C102.33 41.2739 102.309 41.4742 102.297 41.6789C102.277 41.8808 102.263 42.084 102.244 42.2873C102.227 42.4891 102.212 42.6954 102.196 42.9016C102.179 43.1049 102.159 43.3111 102.146 43.5188C102.128 43.7265 102.109 43.9328 102.093 44.1419C102.072 44.3452 102.059 44.5574 102.042 44.768C102.023 44.9772 102.007 45.1864 101.991 45.3955C101.97 45.6062 101.956 45.8183 101.936 46.0275C101.92 46.2411 101.901 46.4532 101.882 46.6653C101.866 46.8789 101.851 47.094 101.833 47.3076L101.831 47.3311C101.813 47.5368 101.794 47.7413 101.779 47.9513C101.76 48.1679 101.743 48.3815 101.724 48.598C101.708 48.8146 101.689 49.0311 101.673 49.2491C101.655 49.4672 101.633 49.6837 101.617 49.9032C101.598 50.1212 101.581 50.3407 101.564 50.5602C101.546 50.7797 101.528 50.9992 101.508 51.2187C101.492 51.4396 101.472 51.6591 101.452 51.883C101.437 52.104 101.416 52.3264 101.399 52.5488C101.38 52.7713 101.363 52.9937 101.343 53.2176C101.324 53.4386 101.307 53.664 101.287 53.8849C101.271 54.1088 101.251 54.3372 101.234 54.5626C101.215 54.7879 101.195 55.0133 101.175 55.2387C101.157 55.4641 101.138 55.6909 101.122 55.9178C101.104 56.1446 101.083 56.373 101.063 56.5984C101.042 56.8237 101.028 57.0535 101.008 57.2819C100.988 57.5087 100.972 57.7385 100.951 57.9654C100.933 58.1967 100.916 58.4265 100.895 58.6548C100.874 58.8861 100.855 59.1159 100.836 59.3442C100.82 59.5755 100.799 59.8023 100.783 60.0365C100.762 60.2678 100.743 60.4991 100.721 60.7289C100.706 60.9616 100.686 61.1944 100.664 61.4242C100.649 61.6584 100.63 61.8912 100.606 62.121C100.591 62.3552 100.569 62.5879 100.55 62.8192C100.534 63.0534 100.512 63.2876 100.493 63.5189C100.475 63.7546 100.454 63.9888 100.434 64.2216C100.418 64.4573 100.396 64.6885 100.379 64.9242C100.36 65.1555 100.341 65.3927 100.317 65.6284C100.3 65.8369 100.284 66.0515 100.268 66.2644L100.263 66.334C100.241 66.5682 100.222 66.8039 100.201 67.0381C100.185 67.2753 100.161 67.511 100.145 67.7422L100.143 67.763C100.123 67.9946 100.103 68.2249 100.088 68.4537C100.067 68.6894 100.049 68.9266 100.027 69.1623C100.007 69.398 99.989 69.6337 99.9684 69.8694C99.9507 70.1095 99.9301 70.3422 99.9124 70.5809L99.8505 71.2894C99.8343 71.5295 99.8122 71.7638 99.7945 72.0024C99.7739 72.2411 99.7533 72.4782 99.7356 72.7154C99.712 72.9511 99.6958 73.1897 99.6767 73.4254C99.6575 73.6626 99.6384 73.8997 99.6163 74.1369C99.5971 74.3741 99.5765 74.6098 99.5603 74.8499C99.5397 75.0871 99.5205 75.3242 99.5014 75.5614C99.4793 75.7986 99.4601 76.0328 99.441 76.2714L99.4347 76.3482C99.4176 76.5577 99.4003 76.7703 99.3806 76.9829C99.3644 77.2201 99.3452 77.4572 99.3246 77.6944C99.3025 77.9272 99.2834 78.1673 99.2657 78.4044C99.2466 78.6431 99.2274 78.8788 99.2053 79.1145C99.1891 79.3531 99.167 79.5888 99.1449 79.823C99.1287 80.0631 99.1095 80.2974 99.0874 80.536C99.0683 80.7702 99.0492 81.0074 99.033 81.2416C99.0123 81.4802 98.9932 81.7159 98.9725 81.9516C98.9519 82.1873 98.9357 82.423 98.9151 82.6572C98.8945 82.8944 98.8753 83.1301 98.8577 83.3643C98.8382 83.5687 98.8211 83.7776 98.8043 83.9832L98.7972 84.0684C98.7781 84.3056 98.759 84.534 98.7413 84.7726C98.7207 84.989 98.7027 85.2079 98.6849 85.4247L98.6809 85.4738C98.6632 85.7095 98.6441 85.9437 98.6234 86.1779C98.6058 86.4107 98.5866 86.6449 98.5675 86.8776C98.5468 87.1104 98.5277 87.3416 98.5085 87.5714C98.4894 87.8071 98.4702 88.0399 98.4481 88.2712C98.4319 88.5039 98.4143 88.7366 98.3936 88.9665C98.3745 89.1992 98.3553 89.4305 98.3377 89.6618C98.317 89.8901 98.2979 90.1214 98.2802 90.3512C98.2625 90.5824 98.2419 90.8108 98.2242 91.042L98.2241 91.0436C98.205 91.2729 98.1859 91.5022 98.1638 91.73C98.1476 91.9598 98.1285 92.1866 98.1079 92.4135C98.0872 92.6448 98.071 92.8701 98.0533 93.0985C98.0357 93.3253 98.0165 93.5536 97.9944 93.7805C97.9767 94.0059 97.9605 94.2327 97.9399 94.4596C97.9222 94.685 97.9016 94.9104 97.8869 95.1357C97.8677 95.3582 97.8486 95.5836 97.8309 95.8089C97.8103 96.0328 97.7911 96.2568 97.7749 96.4777C97.7573 96.7046 97.7366 96.927 97.719 97.1494C97.6998 97.3719 97.6836 97.5928 97.6645 97.8138C97.6468 98.0377 97.6276 98.2587 97.6085 98.4782C97.5893 98.6962 97.5731 98.9171 97.554 99.1381C97.5363 99.3576 97.5186 99.5771 97.5024 99.7936C97.4818 100.013 97.4656 100.231 97.4464 100.448C97.4288 100.667 97.4126 100.884 97.3934 101.099C97.3772 101.312 97.358 101.53 97.3404 101.747C97.3197 101.961 97.3035 102.176 97.2873 102.391C97.2697 102.604 97.2505 102.818 97.2314 103.03C97.2152 103.245 97.2004 103.457 97.1827 103.669C97.1636 103.878 97.1459 104.089 97.1283 104.301C97.1106 104.512 97.0944 104.721 97.0782 104.93C97.0597 105.132 97.044 105.333 97.0284 105.533L97.0266 105.556C97.0075 105.764 96.9927 105.972 96.9751 106.179C96.9588 106.386 96.9412 106.592 96.925 106.794C96.9043 107.001 96.8911 107.206 96.8719 107.409C96.8579 107.586 96.8428 107.76 96.8275 107.937L96.8204 108.019C96.8071 108.22 96.788 108.424 96.7718 108.625L96.7669 108.68C96.7509 108.863 96.7349 109.045 96.7202 109.224C96.707 109.423 96.6908 109.624 96.6745 109.821C96.6583 110.02 96.6421 110.217 96.6215 110.413C96.6106 110.596 96.5958 110.776 96.5808 110.958L96.5773 111.001C96.5449 111.391 96.514 111.779 96.4816 112.163C96.4492 112.545 96.4182 112.923 96.3843 113.302C96.3564 113.68 96.3225 114.055 96.293 114.424C96.2621 114.794 96.2311 115.159 96.2017 115.52C96.1737 115.886 96.1442 116.247 96.1118 116.603C96.0853 116.959 96.0559 117.312 96.0264 117.659C95.9969 118.004 95.9704 118.352 95.9409 118.692C95.9144 119.031 95.8864 119.369 95.857 119.701C95.8319 120.035 95.8054 120.364 95.7774 120.686C95.748 121.012 95.7244 121.332 95.6964 121.648C95.6699 121.964 95.6463 122.276 95.6213 122.584C95.5948 122.89 95.5697 123.191 95.5462 123.49C95.5226 123.789 95.4961 124.08 95.471 124.371C95.446 124.661 95.4268 124.945 95.4003 125.226C95.3797 125.506 95.3576 125.78 95.334 126.051C95.3134 126.319 95.2898 126.586 95.2692 126.845C95.2471 127.106 95.2265 127.361 95.2059 127.611C95.1838 127.86 95.1632 128.108 95.1455 128.348C95.1219 128.587 95.1028 128.822 95.0866 129.051C95.0674 129.28 95.0468 129.504 95.0306 129.722C95.0129 129.942 94.9952 130.155 94.9775 130.363C94.9437 130.779 94.9098 131.17 94.8789 131.542C94.8494 131.91 94.8185 132.255 94.7919 132.577C94.7669 132.901 94.7404 133.2 94.7198 133.474C94.6977 133.747 94.6741 133.996 94.6579 134.218C94.6196 134.662 94.5916 135.003 94.5724 135.232Z" fill="#FDC430"/>
</mask>
<g mask="url(#mask0_30_504)">
<path d="M129.332 140.442C142.67 128.43 142.523 118.85 93.8852 118.85C45.2477 118.85 59.7652 146.853 31.0986 140.442C2.4319 134.031 -2.72664 124.524 -7.443 118.85C-12.1594 113.176 43.9949 98.1422 78.557 102.195C113.119 106.248 169.789 76.9922 117.172 67.8543C64.5553 58.7163 73.1774 88.2673 35.2991 96.0788C-2.57924 103.89 -7.443 92.5415 -2.72664 86.2039C1.98972 79.8663 39.0574 61.5166 23.1397 59.3795C7.22196 57.2424 -6.04284 86.8671 -19.6761 82.1508C-33.3093 77.4344 -6.26391 33.2921 71.0403 52.0839C148.345 70.8757 178.485 14.2056 132.206 20.838C85.9263 27.4704 103.244 37.4926 52.6907 36.6083C12.2478 35.9009 -1.10539 21.3784 -2.72664 14.2056C2.65297 5.46065 17.5095 -8.9341 33.8989 3.44637C54.3856 18.9219 73.3985 23.1225 108.182 11.4052" stroke="#657380" stroke-width="1.47386"/>
</g>
<path fill-rule="evenodd" clip-rule="evenodd" d="M39.2802 13.8494C39.0504 13.8936 38.825 13.9525 38.607 14.0262C38.3875 14.0984 38.1739 14.1897 37.9662 14.2928C37.7644 14.4004 37.564 14.5167 37.3769 14.6478C37.1884 14.7775 37.0087 14.9233 36.8393 15.078C36.6699 15.2312 36.5093 15.3991 36.3649 15.5788C36.2162 15.7556 36.0821 15.9427 35.9613 16.1386C35.839 16.3316 35.7286 16.5408 35.6372 16.7499C35.5415 16.9621 35.4664 17.183 35.403 17.4099C35.403 17.4099 35.2469 17.9814 35.0892 18.5604C34.9316 19.1363 34.7711 19.7094 34.7711 19.7094C34.7711 19.7094 34.6724 20.0747 34.5221 20.6227C34.447 20.8937 34.3586 21.2148 34.2658 21.5596C34.1715 21.8984 34.0713 22.2666 33.9668 22.632C33.8681 22.9943 33.7708 23.3611 33.6766 23.6999C33.5779 24.0461 33.4939 24.3658 33.4173 24.6383C33.2641 25.1878 33.1669 25.5531 33.1669 25.5531C33.0711 25.8919 33.021 26.2248 33.0019 26.5533C32.9872 26.8803 33.0107 27.2 33.0667 27.5079C33.1227 27.8143 33.214 28.1104 33.3348 28.3888C33.4556 28.6657 33.6073 28.9264 33.7856 29.1666C33.9653 29.4067 34.173 29.6291 34.4028 29.8191C34.6341 30.0151 34.886 30.1845 35.1629 30.3215C35.4384 30.457 35.7389 30.566 36.0482 30.6396C36.3649 30.7148 36.6964 30.7516 37.0426 30.7545C37.0426 30.7545 37.1943 30.7545 37.4874 30.7545C37.6303 30.7516 37.81 30.7545 38.0192 30.7531C38.2299 30.7531 38.4714 30.7545 38.7425 30.7516C39.0106 30.7545 39.3096 30.7531 39.6337 30.7531C39.9622 30.7545 40.3143 30.7545 40.6914 30.7545C40.877 30.7545 41.0729 30.7545 41.2718 30.7545C41.4736 30.7545 41.6798 30.7531 41.889 30.7501C42.1011 30.7516 42.3162 30.7531 42.5386 30.7545C42.7596 30.7531 42.985 30.7531 43.2192 30.7545C43.4505 30.7531 43.6862 30.7545 43.9248 30.7545C44.1679 30.7545 44.4124 30.7545 44.6628 30.7531C44.9132 30.7545 45.1666 30.7545 45.4259 30.7531C45.6807 30.7545 45.9444 30.7545 46.2081 30.7531C46.4718 30.7545 46.7443 30.7516 47.0153 30.7545C47.2879 30.7545 47.5619 30.7531 47.8417 30.7531C48.1216 30.7545 48.403 30.7545 48.6873 30.7545C48.9701 30.7545 49.2588 30.7545 49.5476 30.7516C49.8378 30.7545 50.128 30.7531 50.4241 30.7545C50.7172 30.7545 51.0118 30.7516 51.3079 30.7531C51.6099 30.7545 51.9089 30.7531 52.2094 30.7531C52.507 30.7516 52.8134 30.7516 53.1183 30.7531C53.4203 30.7545 53.7267 30.7501 54.0331 30.7545C54.338 30.7545 54.6444 30.7531 54.9509 30.7545C55.2587 30.7545 55.5681 30.7545 55.8774 30.7531C56.1824 30.7531 56.4917 30.7516 56.801 30.7516C57.1089 30.7516 57.4212 30.7545 57.7276 30.7545C58.0355 30.7545 58.3448 30.7545 58.6527 30.7545C58.9606 30.7516 59.267 30.7545 59.5719 30.7516C59.8783 30.7531 60.1847 30.7501 60.4867 30.7516C60.7916 30.7545 61.0907 30.7545 61.3941 30.7531C61.6961 30.7545 61.9937 30.7531 62.2942 30.7531C62.5917 30.7531 62.8878 30.7545 63.181 30.7516C63.4756 30.7545 63.7658 30.7516 64.0545 30.7545C64.3462 30.7545 64.6334 30.7545 64.9148 30.7545C65.2006 30.7516 65.4805 30.7545 65.7618 30.7545C66.0402 30.7531 66.3157 30.7545 66.5882 30.7531C66.8593 30.7545 67.1274 30.7516 67.3955 30.7531C67.6606 30.7531 67.9214 30.7531 68.1792 30.7545C68.4369 30.7531 68.6903 30.7545 68.9393 30.7531C69.1897 30.7531 69.4342 30.7531 69.6773 30.7545C69.9174 30.7545 70.1531 30.7531 70.3858 30.7501C70.6171 30.7516 70.844 30.7545 71.0649 30.7545C71.2859 30.7516 71.5024 30.7545 71.7146 30.7545C71.9252 30.7545 72.13 30.7545 72.3303 30.7531C72.5306 30.7545 72.7236 30.7545 72.9122 30.7545C73.2893 30.7545 73.6414 30.7531 73.9669 30.7545C74.2925 30.7531 74.593 30.7531 74.8611 30.7531C75.1321 30.7545 75.3722 30.7531 75.5829 30.7545C75.7935 30.7545 75.9732 30.7531 76.1161 30.7516C76.4049 30.7516 76.561 30.7545 76.561 30.7545C76.9057 30.7545 77.243 30.7148 77.5701 30.6411C77.8986 30.5675 78.2153 30.4599 78.5128 30.3215C78.8163 30.1845 79.1006 30.0165 79.3658 29.8221C79.6324 29.6291 79.8784 29.4096 80.1023 29.168C80.3233 28.9279 80.5221 28.6657 80.6945 28.3888C80.8639 28.1104 81.0097 27.8143 81.1202 27.5079C81.2322 27.2 81.3117 26.8803 81.3544 26.5533C81.3986 26.2233 81.4075 25.8919 81.3736 25.5516C81.3736 25.5516 81.3412 25.1878 81.2896 24.6398C81.2631 24.3658 81.2336 24.0461 81.2012 23.7029C81.1673 23.3582 81.1349 22.9943 81.0981 22.632C81.0642 22.2666 81.0318 21.8998 80.9994 21.5596C80.967 21.2119 80.9346 20.8937 80.911 20.6227C80.858 20.0747 80.8256 19.7094 80.8256 19.7094C80.8256 19.7094 80.7711 19.1363 80.7181 18.5604C80.6635 17.9829 80.6105 17.4113 80.6105 17.4113C80.5899 17.1845 80.5516 16.965 80.4941 16.7514C80.4396 16.5408 80.3689 16.3316 80.2835 16.1386C80.1966 15.9427 80.0964 15.7527 79.9815 15.5788C79.8666 15.3976 79.7385 15.2341 79.597 15.078C79.4556 14.9218 79.3009 14.7804 79.1374 14.6464C78.9725 14.5182 78.7942 14.3989 78.6101 14.2958C78.423 14.1912 78.2256 14.0998 78.0194 14.0262C77.8131 13.9496 77.5995 13.8907 77.3786 13.8524C77.3786 13.8524 77.2357 13.8244 76.9897 13.7787C76.7437 13.7286 76.3872 13.6623 75.9659 13.5843C75.7538 13.5415 75.524 13.5003 75.2824 13.4517C75.0378 13.4075 74.783 13.3604 74.5193 13.3088C74.2527 13.2572 73.9816 13.2072 73.7018 13.1541C73.4233 13.0996 73.142 13.0481 72.8591 12.995C72.5778 12.9391 72.295 12.8875 72.0165 12.8359C71.7381 12.7814 71.4641 12.7314 71.199 12.6768C70.9368 12.6268 70.6805 12.5782 70.4374 12.534C70.1958 12.4898 69.9675 12.4426 69.7524 12.4043C69.3296 12.3218 68.9761 12.257 68.7301 12.2084C68.4841 12.1657 68.3427 12.1362 68.3427 12.1362C67.9935 12.0685 67.6621 11.9624 67.3557 11.821C67.0508 11.6766 66.7694 11.4954 66.516 11.2848C66.2627 11.0697 66.0417 10.8325 65.8487 10.5644C65.6602 10.2978 65.5011 10.0061 65.3818 9.69974C65.2683 9.40955 65.1888 9.10314 65.1446 8.78201C65.1004 8.46677 65.0916 8.13533 65.121 7.79504C65.121 7.79504 65.1343 7.64037 65.1564 7.40468C65.177 7.16751 65.2035 6.84932 65.2345 6.53998C65.2624 6.22326 65.2904 5.91244 65.3125 5.6738C65.3302 5.43811 65.3464 5.28344 65.3464 5.28344C65.3715 4.97556 65.37 4.678 65.3361 4.39075C65.3037 4.10497 65.2418 3.82361 65.1505 3.55993C65.0636 3.29772 64.9502 3.04877 64.8132 2.81307C64.6747 2.57885 64.5156 2.35494 64.3329 2.15755C64.1503 1.95721 63.947 1.77897 63.7275 1.61545C63.5036 1.45931 63.2664 1.32231 63.0116 1.21183C62.7567 1.09693 62.4872 1.01296 62.2058 0.954038C61.923 0.892169 61.6298 0.867126 61.3234 0.867126C61.3234 0.867126 61.0966 0.867126 60.7548 0.867126C60.5825 0.867126 60.3836 0.867126 60.1685 0.867126C59.9564 0.867126 59.7295 0.867126 59.5012 0.867126C59.2729 0.867126 59.0446 0.867126 58.8324 0.867126C58.6188 0.867126 58.417 0.867126 58.2476 0.867126C57.9059 0.867126 57.6775 0.867126 57.6775 0.867126C57.3726 0.867126 57.0721 0.893642 56.779 0.954038C56.4858 1.01296 56.1986 1.0984 55.926 1.21183C55.6506 1.32084 55.3869 1.45931 55.135 1.6184C54.8875 1.77897 54.6533 1.95868 54.4338 2.15755C54.2173 2.35494 54.0184 2.57591 53.8372 2.81307C53.6545 3.04582 53.4954 3.29772 53.3614 3.55993C53.2244 3.82655 53.1139 4.10202 53.0285 4.38927C52.943 4.67947 52.8841 4.97703 52.8591 5.28196C52.8591 5.28196 52.8443 5.43811 52.8222 5.67233C52.8016 5.9095 52.7736 6.22621 52.7456 6.53998C52.7162 6.85374 52.6882 7.16604 52.6661 7.40468C52.6455 7.64037 52.6293 7.79799 52.6293 7.79799C52.5998 8.13533 52.5306 8.46677 52.4289 8.78496C52.3288 9.10167 52.1918 9.4066 52.0283 9.69532C51.85 10.0091 51.6408 10.2978 51.4022 10.5659C51.1606 10.8325 50.8954 11.0741 50.6023 11.2833C50.3151 11.4954 49.9998 11.6737 49.6669 11.8195C49.3369 11.9639 48.9878 12.0685 48.6225 12.1377C48.6225 12.1377 48.4766 12.1627 48.2218 12.2084C47.9684 12.2585 47.6031 12.3218 47.1641 12.4029C46.9461 12.4456 46.7089 12.4868 46.4585 12.5354C46.2081 12.5796 45.9429 12.6297 45.6689 12.6783C45.3935 12.7269 45.1106 12.7814 44.8219 12.8359C44.5361 12.8875 44.2459 12.942 43.9528 12.995C43.6582 13.0481 43.368 13.0996 43.0807 13.1527C42.7935 13.2072 42.5121 13.2587 42.2367 13.3088C41.9641 13.3574 41.6975 13.4075 41.4456 13.4546C41.1981 13.4974 40.9565 13.5445 40.74 13.5828C40.301 13.6623 39.9372 13.7286 39.6808 13.7787C39.4245 13.8244 39.2802 13.8494 39.2802 13.8494ZM59.0446 6.75357C59.2861 6.75505 59.5248 6.70054 59.7443 6.61363C59.9652 6.5223 60.167 6.39414 60.3409 6.23652C60.5147 6.07596 60.662 5.88445 60.771 5.6738C60.88 5.46462 60.9507 5.22893 60.9728 4.98882C60.9905 4.74134 60.9655 4.51007 60.8948 4.29941C60.824 4.08729 60.7091 3.89579 60.5663 3.7367C60.4204 3.57466 60.2422 3.44944 60.0374 3.36106C59.8356 3.26973 59.6043 3.22112 59.3627 3.21817C59.1167 3.22259 58.881 3.26973 58.6601 3.35959C58.4435 3.4465 58.2373 3.57908 58.0664 3.73817C57.8911 3.89432 57.7438 4.08876 57.6363 4.29647C57.5258 4.50859 57.4566 4.74134 57.433 4.98587C57.4139 5.23188 57.4404 5.46315 57.5111 5.6738C57.5818 5.88593 57.6937 6.07743 57.841 6.23505C57.9839 6.39709 58.1636 6.52377 58.3684 6.61363C58.5717 6.70202 58.7971 6.75063 59.0446 6.75357Z" fill="#DAE0FE"/>
<path d="M104.937 9.69974C104.937 9.69974 104.659 9.69679 104.242 9.69679C104.036 9.69974 103.792 9.69679 103.532 9.69974C103.275 9.69974 102.996 9.69679 102.722 9.69974C102.443 9.69827 102.166 9.69679 101.907 9.69827C101.648 9.69974 101.406 9.69532 101.194 9.69827C100.781 9.69974 100.506 9.69974 100.506 9.69974C100.808 9.69679 101.107 9.72625 101.39 9.78665C101.674 9.8441 101.944 9.93101 102.197 10.043C102.453 10.1564 102.695 10.2934 102.917 10.454C103.14 10.6116 103.345 10.7913 103.529 10.9916C103.711 11.192 103.876 11.4115 104.018 11.6472C104.156 11.8799 104.274 12.1318 104.365 12.3955C104.455 12.6606 104.52 12.9391 104.554 13.2248C104.588 13.5106 104.597 13.8111 104.57 14.1146C104.57 14.1146 104.561 14.2354 104.542 14.4652C104.522 14.692 104.495 15.0353 104.46 15.4801C104.439 15.7011 104.42 15.9515 104.398 16.224C104.376 16.4951 104.351 16.7971 104.324 17.1182C104.298 17.4423 104.267 17.787 104.237 18.1567C104.208 18.5265 104.175 18.9198 104.137 19.3337C104.124 19.5429 104.106 19.7565 104.087 19.973C104.069 20.194 104.05 20.415 104.033 20.6462C104.01 20.8716 103.991 21.1103 103.972 21.3489C103.952 21.589 103.932 21.8335 103.912 22.0854C103.893 22.3373 103.869 22.5892 103.85 22.8529C103.828 23.1122 103.804 23.3744 103.785 23.6454C103.76 23.915 103.739 24.1919 103.717 24.4718C103.691 24.7502 103.667 25.036 103.647 25.3262C103.623 25.6149 103.598 25.9081 103.57 26.2057C103.548 26.5032 103.524 26.8081 103.499 27.1145C103.473 27.4224 103.448 27.7332 103.418 28.0485C103.395 28.3667 103.37 28.6863 103.339 29.0089C103.315 29.3345 103.289 29.663 103.259 29.9959C103.231 30.3288 103.206 30.6647 103.178 31.0064C103.149 31.3467 103.119 31.69 103.093 32.0391C103.06 32.3867 103.032 32.7388 103.003 33.0938C102.973 33.4488 102.942 33.8097 102.916 34.175C102.887 34.536 102.854 34.9028 102.826 35.274C102.792 35.6422 102.764 36.0179 102.73 36.3935C102.702 36.7721 102.667 37.1507 102.636 37.5337C102.605 37.9196 102.571 38.307 102.543 38.6974C102.526 38.8904 102.509 39.0878 102.495 39.2852C102.478 39.4811 102.461 39.6785 102.446 39.8744C102.425 40.0718 102.409 40.2692 102.396 40.4725C102.377 40.6699 102.364 40.8717 102.343 41.0706C102.33 41.2738 102.309 41.4742 102.297 41.6789C102.277 41.8808 102.263 42.084 102.244 42.2873C102.227 42.4891 102.212 42.6954 102.196 42.9016C102.179 43.1049 102.159 43.3111 102.146 43.5188C102.128 43.7265 102.109 43.9328 102.093 44.1419C102.072 44.3452 102.059 44.5573 102.042 44.768C102.023 44.9772 102.007 45.1864 101.991 45.3955C101.97 45.6062 101.956 45.8183 101.936 46.0275C101.92 46.2411 101.901 46.4532 101.882 46.6653C101.866 46.8789 101.851 47.094 101.833 47.3076C101.814 47.5212 101.795 47.7333 101.779 47.9513C101.76 48.1679 101.743 48.3815 101.724 48.598C101.708 48.8146 101.689 49.0311 101.673 49.2491C101.655 49.4671 101.633 49.6837 101.617 49.9032C101.598 50.1212 101.581 50.3407 101.564 50.5602C101.546 50.7797 101.528 50.9991 101.508 51.2186C101.491 51.4396 101.472 51.6591 101.452 51.883C101.437 52.104 101.416 52.3264 101.399 52.5488C101.38 52.7713 101.363 52.9937 101.343 53.2176C101.324 53.4386 101.307 53.664 101.287 53.8849C101.271 54.1088 101.251 54.3372 101.234 54.5625C101.215 54.7879 101.195 55.0133 101.175 55.2387C101.157 55.4641 101.138 55.6909 101.122 55.9178C101.104 56.1446 101.083 56.373 101.063 56.5983C101.042 56.8237 101.027 57.0535 101.008 57.2819C100.988 57.5087 100.971 57.7385 100.951 57.9654C100.933 58.1966 100.916 58.4264 100.895 58.6548C100.874 58.886 100.855 59.1158 100.836 59.3442C100.82 59.5755 100.799 59.8023 100.783 60.0365C100.762 60.2678 100.743 60.4991 100.721 60.7289C100.706 60.9616 100.686 61.1944 100.664 61.4242C100.649 61.6584 100.63 61.8911 100.606 62.1209C100.591 62.3552 100.569 62.5879 100.55 62.8192C100.534 63.0534 100.512 63.2876 100.493 63.5189C100.475 63.7546 100.454 63.9888 100.434 64.2216C100.418 64.4573 100.396 64.6885 100.379 64.9242C100.36 65.1555 100.341 65.3927 100.317 65.6284C100.298 65.8596 100.281 66.0983 100.263 66.334C100.241 66.5682 100.222 66.8039 100.201 67.0381C100.185 67.2753 100.161 67.511 100.145 67.7422C100.124 67.9809 100.104 68.218 100.088 68.4537C100.067 68.6894 100.049 68.9266 100.027 69.1623C100.007 69.398 99.9889 69.6337 99.9683 69.8694C99.9506 70.1095 99.93 70.3422 99.9123 70.5809C99.8917 70.818 99.8711 71.0537 99.8505 71.2894C99.8343 71.5295 99.8122 71.7638 99.7945 72.0024C99.7739 72.241 99.7532 72.4782 99.7356 72.7154C99.712 72.9511 99.6958 73.1897 99.6766 73.4254C99.6575 73.6626 99.6383 73.8997 99.6163 74.1369C99.5971 74.3741 99.5765 74.6098 99.5603 74.8499C99.5397 75.087 99.5205 75.3242 99.5014 75.5614C99.4793 75.7985 99.4601 76.0328 99.441 76.2714C99.4218 76.5056 99.4027 76.7443 99.3806 76.9829C99.3644 77.2201 99.3452 77.4572 99.3246 77.6944C99.3025 77.9271 99.2833 78.1673 99.2657 78.4044C99.2465 78.6431 99.2274 78.8788 99.2053 79.1144C99.1891 79.3531 99.167 79.5888 99.1449 79.823C99.1287 80.0631 99.1095 80.2973 99.0874 80.536C99.0683 80.7702 99.0491 81.0074 99.0329 81.2416C99.0123 81.4802 98.9931 81.7159 98.9725 81.9516C98.9519 82.1873 98.9357 82.423 98.9151 82.6572C98.8944 82.8944 98.8753 83.1301 98.8576 83.3643C98.8355 83.5971 98.8164 83.8357 98.7972 84.0684C98.7781 84.3056 98.7589 84.5339 98.7412 84.7726C98.7191 85.0053 98.7 85.241 98.6808 85.4738C98.6632 85.7094 98.644 85.9437 98.6234 86.1779C98.6057 86.4106 98.5866 86.6449 98.5674 86.8776C98.5468 87.1104 98.5276 87.3416 98.5085 87.5714C98.4893 87.8071 98.4702 88.0399 98.4481 88.2711C98.4319 88.5039 98.4142 88.7366 98.3936 88.9664C98.3744 89.1992 98.3553 89.4305 98.3376 89.6617C98.317 89.8901 98.2978 90.1213 98.2802 90.3511C98.2625 90.5824 98.2419 90.8107 98.2242 91.042C98.205 91.2718 98.1859 91.5016 98.1638 91.73C98.1476 91.9598 98.1284 92.1866 98.1078 92.4135C98.0872 92.6447 98.071 92.8701 98.0533 93.0984C98.0356 93.3253 98.0165 93.5536 97.9944 93.7805C97.9767 94.0059 97.9605 94.2327 97.9399 94.4596C97.9222 94.685 97.9016 94.9103 97.8869 95.1357C97.8677 95.3582 97.8486 95.5835 97.8309 95.8089C97.8103 96.0328 97.7911 96.2567 97.7749 96.4777C97.7572 96.7046 97.7366 96.927 97.7189 97.1494C97.6998 97.3719 97.6836 97.5928 97.6644 97.8138C97.6467 98.0377 97.6276 98.2587 97.6084 98.4782C97.5893 98.6962 97.5731 98.9171 97.5539 99.1381C97.5363 99.3576 97.5186 99.5771 97.5024 99.7936C97.4818 100.013 97.4656 100.231 97.4464 100.448C97.4287 100.667 97.4125 100.884 97.3934 101.099C97.3772 101.312 97.358 101.53 97.3403 101.747C97.3197 101.961 97.3035 102.176 97.2873 102.391C97.2696 102.604 97.2505 102.818 97.2313 103.03C97.2151 103.245 97.2004 103.457 97.1827 103.669C97.1636 103.878 97.1459 104.089 97.1282 104.301C97.1105 104.512 97.0943 104.721 97.0781 104.93C97.059 105.139 97.0428 105.349 97.0266 105.556C97.0074 105.764 96.9927 105.972 96.975 106.179C96.9588 106.386 96.9411 106.592 96.9249 106.794C96.9043 107.001 96.891 107.206 96.8719 107.409C96.8557 107.613 96.838 107.815 96.8203 108.019C96.8071 108.22 96.7879 108.424 96.7717 108.625C96.754 108.827 96.7364 109.027 96.7202 109.224C96.7069 109.423 96.6907 109.624 96.6745 109.821C96.6583 110.02 96.6421 110.217 96.6215 110.413C96.6097 110.61 96.5935 110.803 96.5773 111.001C96.5449 111.391 96.5139 111.779 96.4815 112.163C96.4491 112.545 96.4182 112.923 96.3843 113.302C96.3563 113.68 96.3224 114.055 96.293 114.424C96.262 114.794 96.2311 115.159 96.2016 115.52C96.1737 115.886 96.1442 116.246 96.1118 116.603C96.0853 116.959 96.0558 117.312 96.0263 117.659C95.9969 118.004 95.9704 118.352 95.9409 118.692C95.9144 119.031 95.8864 119.369 95.8569 119.701C95.8319 120.035 95.8054 120.364 95.7774 120.686C95.7479 121.012 95.7244 121.332 95.6964 121.648C95.6699 121.964 95.6463 122.276 95.6212 122.584C95.5947 122.89 95.5697 123.191 95.5461 123.49C95.5225 123.789 95.496 124.08 95.471 124.371C95.4459 124.661 95.4268 124.945 95.4003 125.226C95.3797 125.506 95.3576 125.78 95.334 126.051C95.3134 126.319 95.2898 126.586 95.2692 126.845C95.2471 127.106 95.2265 127.361 95.2058 127.611C95.1837 127.86 95.1631 128.108 95.1454 128.348C95.1219 128.587 95.1027 128.822 95.0865 129.051C95.0674 129.28 95.0467 129.504 95.0305 129.722C95.0129 129.942 94.9952 130.155 94.9775 130.363C94.9436 130.778 94.9098 131.17 94.8788 131.542C94.8494 131.91 94.8184 132.255 94.7919 132.577C94.7669 132.901 94.7403 133.2 94.7197 133.474C94.6976 133.747 94.6741 133.996 94.6579 134.218C94.6196 134.662 94.5916 135.003 94.5724 135.232C94.5533 135.463 94.5429 135.582 94.5429 135.582C94.515 135.886 94.4619 136.185 94.3765 136.472C94.2925 136.758 94.1806 137.036 94.0436 137.3C93.9051 137.562 93.7431 137.812 93.5619 138.05C93.3792 138.285 93.1715 138.502 92.955 138.705C92.7325 138.904 92.4909 139.084 92.2346 139.241C91.9813 139.4 91.7146 139.539 91.4333 139.652C91.1534 139.763 90.8632 139.85 90.5627 139.909C90.2651 139.969 89.9513 139.999 89.6464 140C89.6464 140 89.9278 140 90.3476 139.999C90.5627 140 90.8102 140 91.0738 139.999C91.3405 139.996 91.6233 139.999 91.9061 140C92.1875 139.997 92.4703 140 92.734 140C92.9992 139.999 93.2452 139.997 93.4558 139.999C93.883 139.999 94.1658 140 94.1658 140C94.4737 139.997 94.7845 139.969 95.0821 139.909C95.3826 139.85 95.6743 139.764 95.9527 139.652C96.2341 139.54 96.5022 139.403 96.757 139.241C97.0118 139.084 97.2505 138.904 97.4714 138.705C97.6895 138.503 97.8942 138.285 98.0769 138.05C98.2581 137.815 98.4186 137.564 98.5512 137.3C98.6867 137.035 98.8002 136.759 98.8827 136.472C98.9666 136.185 99.0241 135.887 99.0491 135.582C99.0491 135.582 99.058 135.463 99.0742 135.233C99.0948 135.003 99.1242 134.662 99.1611 134.218C99.1773 133.996 99.195 133.747 99.22 133.473C99.2421 133.2 99.2686 132.901 99.2936 132.577C99.3202 132.255 99.3482 131.907 99.3776 131.54C99.4071 131.169 99.441 130.778 99.4748 130.363C99.494 130.155 99.5117 129.942 99.5293 129.722C99.5455 129.504 99.5603 129.28 99.5824 129.049C99.6001 128.822 99.6207 128.585 99.6413 128.346C99.6604 128.106 99.6811 127.862 99.7002 127.611C99.7208 127.361 99.7429 127.103 99.7636 126.845C99.7842 126.585 99.8063 126.319 99.8299 126.05C99.8505 125.78 99.8755 125.506 99.8961 125.226C99.9212 124.947 99.9433 124.661 99.9668 124.369C99.9919 124.082 100.015 123.787 100.041 123.49C100.064 123.194 100.089 122.89 100.111 122.584C100.141 122.276 100.166 121.964 100.192 121.648C100.216 121.33 100.242 121.01 100.27 120.686C100.297 120.364 100.325 120.035 100.35 119.701C100.376 119.369 100.406 119.034 100.432 118.69C100.46 118.352 100.488 118.007 100.518 117.659C100.546 117.312 100.575 116.958 100.605 116.602C100.636 116.246 100.665 115.887 100.69 115.52C100.721 115.159 100.753 114.796 100.784 114.424C100.814 114.055 100.846 113.68 100.876 113.302C100.908 112.926 100.938 112.543 100.969 112.162C100.998 111.779 101.033 111.391 101.064 110.998C101.081 110.806 101.098 110.61 101.114 110.413C101.128 110.217 101.144 110.02 101.16 109.821C101.178 109.624 101.195 109.423 101.21 109.226C101.226 109.027 101.243 108.825 101.26 108.625C101.276 108.424 101.293 108.221 101.309 108.018C101.325 107.816 101.341 107.611 101.357 107.409C101.374 107.206 101.393 107.001 101.41 106.795C101.427 106.592 101.441 106.386 101.459 106.179C101.477 105.97 101.494 105.764 101.509 105.556C101.528 105.347 101.543 105.139 101.564 104.93C101.58 104.72 101.596 104.509 101.615 104.301C101.633 104.089 101.645 103.878 101.667 103.669C101.684 103.457 101.699 103.245 101.72 103.031C101.733 102.818 101.749 102.604 101.771 102.391C101.786 102.176 101.804 101.959 101.824 101.747C101.842 101.53 101.857 101.314 101.874 101.096C101.895 100.884 101.913 100.667 101.932 100.449C101.95 100.231 101.964 100.012 101.984 99.7951C102.001 99.5771 102.019 99.3576 102.037 99.1381C102.057 98.9186 102.075 98.6962 102.093 98.4767C102.112 98.2587 102.125 98.0377 102.147 97.8153C102.166 97.5943 102.184 97.3719 102.2 97.1494C102.221 96.927 102.238 96.7046 102.256 96.4792C102.275 96.2567 102.294 96.0328 102.312 95.806C102.33 95.585 102.349 95.3582 102.368 95.1357C102.383 94.9103 102.4 94.6835 102.422 94.4596C102.437 94.2327 102.459 94.0073 102.478 93.7805C102.498 93.5536 102.512 93.3253 102.53 93.097C102.552 92.8701 102.57 92.6447 102.587 92.4135C102.61 92.1881 102.627 91.9598 102.646 91.73C102.661 91.5016 102.685 91.2718 102.698 91.042C102.719 90.8093 102.739 90.5795 102.76 90.3511C102.775 90.1213 102.798 89.8915 102.811 89.6617C102.835 89.4305 102.853 89.1992 102.872 88.9679C102.891 88.7366 102.909 88.5039 102.926 88.2711C102.95 88.0399 102.969 87.8071 102.985 87.5714C103.004 87.3402 103.026 87.1104 103.046 86.8776C103.065 86.6434 103.084 86.4106 103.099 86.1779C103.122 85.9437 103.141 85.7095 103.159 85.4723C103.178 85.241 103.197 85.0068 103.218 84.7711C103.234 84.5354 103.256 84.3056 103.275 84.0699C103.295 83.8357 103.309 83.5971 103.333 83.3643C103.349 83.1301 103.371 82.8944 103.39 82.6587C103.409 82.423 103.427 82.1844 103.449 81.9516C103.468 81.7159 103.488 81.4802 103.504 81.2416C103.524 81.0074 103.546 80.7717 103.566 80.536C103.585 80.2988 103.604 80.0631 103.623 79.823C103.638 79.5888 103.663 79.3531 103.682 79.1159C103.701 78.8788 103.72 78.6431 103.739 78.4059C103.76 78.1687 103.775 77.9286 103.798 77.6944C103.815 77.4572 103.834 77.2186 103.853 76.9814C103.873 76.7443 103.893 76.5071 103.915 76.2714C103.935 76.0328 103.954 75.7985 103.974 75.5614C103.993 75.3242 104.012 75.087 104.031 74.8499C104.049 74.6098 104.071 74.3741 104.09 74.1369C104.109 73.8983 104.13 73.6626 104.149 73.4254C104.168 73.1897 104.187 72.9525 104.206 72.7154C104.227 72.4782 104.246 72.241 104.265 72.0024C104.284 71.7667 104.305 71.5266 104.324 71.2924C104.343 71.0552 104.36 70.818 104.38 70.5794C104.402 70.3437 104.421 70.1095 104.441 69.8723C104.46 69.6337 104.479 69.398 104.498 69.1608C104.514 68.9251 104.538 68.6894 104.557 68.4537C104.576 68.218 104.592 67.9794 104.614 67.7452C104.631 67.5095 104.653 67.2738 104.673 67.0396C104.693 66.8039 104.709 66.5667 104.731 66.334C104.748 66.0953 104.769 65.8596 104.788 65.6284C104.806 65.3912 104.824 65.1584 104.843 64.9227C104.865 64.6915 104.883 64.4573 104.9 64.2216C104.922 63.9873 104.943 63.7546 104.959 63.5189C104.978 63.2876 104.999 63.0519 105.015 62.8207C105.037 62.5879 105.055 62.3522 105.071 62.1209C105.095 61.8911 105.114 61.6584 105.129 61.4227C105.152 61.1944 105.17 60.9616 105.19 60.7303C105.208 60.4991 105.229 60.2678 105.248 60.0365C105.264 59.8023 105.283 59.574 105.304 59.3442C105.323 59.1144 105.339 58.8831 105.358 58.6548C105.379 58.4264 105.398 58.1966 105.413 57.9668C105.432 57.737 105.454 57.5102 105.473 57.2819C105.489 57.0506 105.506 56.8237 105.525 56.5983C105.548 56.373 105.565 56.1446 105.585 55.9178C105.6 55.6895 105.618 55.4641 105.638 55.2372C105.656 55.0133 105.675 54.7865 105.696 54.5611C105.71 54.3357 105.733 54.1118 105.752 53.8879C105.771 53.6654 105.786 53.4401 105.803 53.2161C105.822 52.9922 105.84 52.7698 105.862 52.5474C105.875 52.3264 105.897 52.104 105.917 51.883C105.93 51.6591 105.949 51.4396 105.968 51.2172C105.987 50.9991 106.005 50.7797 106.021 50.5587C106.042 50.3392 106.057 50.1212 106.076 49.9017C106.092 49.6822 106.111 49.4671 106.129 49.2491C106.148 49.0282 106.169 48.8146 106.185 48.598C106.199 48.38 106.222 48.1679 106.236 47.9499C106.253 47.7333 106.275 47.5212 106.292 47.3076C106.31 47.094 106.325 46.8789 106.341 46.6653C106.36 46.4532 106.378 46.2411 106.397 46.029C106.41 45.8183 106.431 45.6032 106.447 45.3955C106.463 45.1849 106.478 44.9772 106.5 44.768C106.513 44.5573 106.532 44.3467 106.552 44.1419C106.569 43.9342 106.584 43.7265 106.602 43.5188C106.615 43.3111 106.636 43.1034 106.653 42.9016C106.665 42.6954 106.687 42.4921 106.7 42.2859C106.721 42.084 106.733 41.8808 106.752 41.6775C106.767 41.4757 106.786 41.2738 106.8 41.072C106.817 40.8687 106.831 40.6699 106.849 40.4695C106.867 40.2692 106.882 40.0718 106.902 39.8744C106.917 39.6785 106.933 39.4811 106.951 39.2852C106.967 39.0878 106.982 38.8889 106.996 38.6974C107.027 38.307 107.06 37.9167 107.089 37.5337C107.123 37.1507 107.153 36.7721 107.185 36.3935C107.219 36.0149 107.248 35.6437 107.279 35.274C107.309 34.9028 107.34 34.536 107.369 34.1736C107.396 33.8112 107.427 33.4503 107.455 33.0938C107.487 32.7388 107.516 32.3852 107.544 32.0391C107.572 31.69 107.6 31.3467 107.63 31.0064C107.658 30.6647 107.683 30.3288 107.711 29.9959C107.739 29.663 107.765 29.3345 107.792 29.0089C107.82 28.6863 107.845 28.3667 107.87 28.05C107.898 27.7347 107.922 27.4224 107.947 27.1131C107.973 26.8081 107.997 26.5047 108.023 26.2071C108.048 25.9081 108.069 25.6135 108.095 25.3262C108.117 25.036 108.141 24.7502 108.165 24.4718C108.187 24.1919 108.207 23.918 108.232 23.6454C108.254 23.3744 108.275 23.1122 108.299 22.8529C108.318 22.5922 108.337 22.3373 108.359 22.0869C108.38 21.8365 108.4 21.589 108.421 21.3504C108.44 21.1103 108.459 20.876 108.48 20.6462C108.495 20.4164 108.517 20.194 108.53 19.973C108.551 19.7565 108.57 19.5429 108.587 19.3352C108.621 18.9198 108.654 18.5279 108.682 18.1567C108.713 17.787 108.741 17.4423 108.766 17.1182C108.795 16.7971 108.82 16.498 108.838 16.2226C108.864 15.95 108.883 15.7026 108.901 15.4801C108.938 15.0353 108.964 14.6935 108.987 14.4637C109.003 14.2339 109.015 14.1175 109.015 14.1175C109.038 13.8096 109.032 13.5121 108.998 13.2263C108.96 12.9376 108.895 12.6562 108.804 12.3925C108.714 12.1303 108.598 11.8799 108.458 11.6472C108.316 11.4129 108.15 11.1934 107.966 10.9931C107.783 10.7913 107.578 10.6131 107.354 10.454C107.129 10.2949 106.89 10.1579 106.631 10.043C106.378 9.93249 106.105 9.8441 105.824 9.78665C105.54 9.7292 105.239 9.69679 104.937 9.69974Z" fill="#424B54"/>
</svg>
